<svg width="64" height="64" viewBox="0 0 64 64" fill="none" xmlns="http://www.w3.org/2000/svg">
<path d="M48.2931 22.121C48.3534 22.0698 48.4266 22.0362 48.5048 22.0239C48.583 22.0116 48.663 22.0212 48.7361 22.0515C48.8092 22.0818 48.8725 22.1316 48.9191 22.1956C48.9656 22.2596 48.9937 22.3351 49.0001 22.414C49.0008 23.0996 49.2736 23.7569 49.7584 24.2417C50.2431 24.7265 50.9004 24.9992 51.5861 25C52.1659 25.0016 52.7404 24.8881 53.2761 24.6662C53.8118 24.4442 54.2982 24.1182 54.7071 23.707L61.5261 16.888C61.9948 16.4218 62.3664 15.8673 62.6194 15.2566C62.8724 14.6459 63.0018 13.9911 63.0001 13.33C62.9992 12.5006 62.6892 11.7014 62.1306 11.0884C61.5719 10.4753 60.8048 10.0926 59.9791 10.015C59.9021 9.45706 59.6259 8.94578 59.2016 8.57546C58.7772 8.20513 58.2333 8.00075 57.6701 8C57.4474 7.99921 57.2325 7.91852 57.0644 7.77261C56.8963 7.6267 56.7862 7.42528 56.7541 7.205C56.5008 5.48608 55.6397 3.91489 54.3272 2.77645C53.0146 1.63801 51.3375 1.00775 49.6001 1C48.9184 1.00147 48.2581 1.23835 47.7309 1.67057C47.2038 2.10279 46.8421 2.70382 46.7071 3.372C46.5572 4.11253 46.1562 4.77857 45.5718 5.25745C44.9874 5.73633 44.2556 5.99864 43.5001 6C42.837 6 42.2011 6.26339 41.7323 6.73223C41.2634 7.20107 41.0001 7.83696 41.0001 8.5C41.0001 9.16304 41.2634 9.79893 41.7323 10.2678C42.2011 10.7366 42.837 11 43.5001 11H44.7001C44.7662 10.9977 44.8312 11.0174 44.8849 11.0559C44.9387 11.0944 44.9783 11.1496 44.9974 11.2129C45.0166 11.2762 45.0143 11.3441 44.9909 11.406C44.9675 11.4678 44.9243 11.5202 44.8681 11.555L35.4821 17.812C34.525 18.4435 33.4299 18.8352 32.2894 18.9539C31.1489 19.0726 29.9967 18.9149 28.9301 18.494L26.5241 17.532C26.2985 17.442 26.0954 17.3039 25.9289 17.1271C25.7624 16.9504 25.6365 16.7395 25.5601 16.509C25.3171 15.7775 24.8496 15.1412 24.224 14.6907C23.5985 14.2403 22.8469 13.9986 22.0761 14C21.7907 14 21.517 13.8866 21.3152 13.6848C21.1134 13.4831 21.0001 13.2094 21.0001 12.924V10.333C20.9996 9.42371 20.7132 8.53758 20.1814 7.80005C19.6495 7.06252 18.8992 6.51095 18.0366 6.22341C17.174 5.93586 16.2427 5.92692 15.3747 6.19784C14.5068 6.46876 13.746 7.00582 13.2001 7.733L11.5811 9.893C11.2047 10.3951 11.0008 11.0055 11.0001 11.633C10.9996 11.8212 10.9401 12.0046 10.8299 12.1572C10.7198 12.3099 10.5645 12.4242 10.3861 12.484C9.69006 12.7154 9.0848 13.1605 8.65642 13.7559C8.22803 14.3512 7.99835 15.0665 8.00005 15.8C7.9977 16.5052 7.76699 17.1908 7.34246 17.7539C6.91792 18.3171 6.3224 18.7276 5.64505 18.924L5.24505 19.036C4.21283 19.3329 3.28208 19.9079 2.55449 20.698C1.82689 21.4881 1.33044 22.4629 1.11938 23.5161C0.908319 24.5692 0.990764 25.6601 1.35771 26.6696C1.72465 27.679 2.36198 28.5682 3.20005 29.24L4.81605 30.532C5.18658 30.8276 5.48552 31.2031 5.69054 31.6305C5.89557 32.0578 6.00137 32.526 6.00005 33C5.99797 33.7742 6.17114 34.5388 6.5066 35.2366C6.84206 35.9343 7.33109 36.5471 7.93705 37.029C10.3407 38.9483 13.3242 39.9956 16.4001 40H16.8791C17.7689 40.0004 18.6467 39.795 19.4441 39.4C19.9626 39.1392 20.5346 39.0023 21.1151 39C21.8797 39 22.613 39.3035 23.154 39.8439C23.695 40.3843 23.9993 41.1174 24.0001 41.882V43.865C23.9971 44.9907 24.2174 46.1059 24.6482 47.1459C25.0791 48.1859 25.7119 49.1301 26.5101 49.924C26.9233 50.3364 27.4284 50.6449 27.9841 50.824C29.0105 53.8322 30.8156 56.5148 33.2157 58.5986C35.6158 60.6825 38.5251 62.0933 41.6476 62.6874C44.7701 63.2815 47.9943 63.0377 50.9919 61.9809C53.9896 60.924 56.6537 59.0918 58.7132 56.6707C60.7726 54.2497 62.1538 51.3262 62.7163 48.1978C63.2787 45.0695 63.0023 41.848 61.9151 38.8612C60.828 35.8744 58.9689 33.2289 56.5271 31.1941C54.0853 29.1593 51.1479 27.8077 48.0141 27.277C48.0141 27.186 48.0001 27.095 48.0001 27.004C48.0001 26.4736 47.7893 25.9649 47.4143 25.5898C47.0392 25.2147 46.5305 25.004 46.0001 25.004C45.9996 24.8182 46.0359 24.6342 46.107 24.4626C46.178 24.2909 46.2824 24.1351 46.4141 24.004L48.2931 22.121ZM61.0001 45C61.0001 48.1645 60.0617 51.2579 58.3036 53.8891C56.5455 56.5203 54.0466 58.5711 51.123 59.7821C48.1994 60.9931 44.9823 61.3099 41.8786 60.6926C38.7749 60.0752 35.924 58.5513 33.6863 56.3137C31.4487 54.0761 29.9249 51.2251 29.3075 48.1214C28.6901 45.0177 29.007 41.8007 30.218 38.8771C31.429 35.9534 33.4797 33.4546 36.1109 31.6965C38.7421 29.9384 41.8356 29 45.0001 29C49.242 29.005 53.3087 30.6924 56.3082 33.6918C59.3077 36.6913 60.995 40.7581 61.0001 45ZM46.0001 27V27.051C45.6661 27.032 45.3351 27 45.0001 27C42.4056 26.9814 39.8382 27.5278 37.4763 28.6014C35.1143 29.675 33.0145 31.2499 31.3225 33.2169C29.6306 35.1838 28.3872 37.4955 27.6788 39.9914C26.9703 42.4873 26.8138 45.1075 27.2201 47.67C26.4265 46.5618 25.9999 45.233 26.0001 43.87V41.882C25.9987 40.5876 25.484 39.3466 24.5687 38.4314C23.6534 37.5161 22.4124 37.0013 21.1181 37C20.2282 36.9996 19.3504 37.205 18.5531 37.6C18.0345 37.8608 17.4625 37.9977 16.8821 38H16.4001C13.7772 37.9969 11.233 37.1042 9.18305 35.468C8.81271 35.1723 8.51396 34.7967 8.30911 34.3694C8.10426 33.942 7.99861 33.4739 8.00005 33C8.00199 32.2257 7.82876 31.4609 7.49332 30.7631C7.15788 30.0652 6.66892 29.4522 6.06305 28.97L4.44805 27.678C3.89528 27.2354 3.47495 26.6493 3.23307 25.9838C2.99119 25.3182 2.93709 24.599 3.0767 23.9048C3.2163 23.2106 3.54423 22.5681 4.02458 22.0479C4.50493 21.5276 5.11917 21.1495 5.80005 20.955L6.20005 20.843C7.29285 20.5251 8.25346 19.8621 8.93836 18.9532C9.62327 18.0442 9.99571 16.9381 10.0001 15.8C9.99951 15.4871 10.0977 15.1819 10.2807 14.9281C10.4636 14.6742 10.722 14.4845 11.0191 14.386C11.5964 14.1931 12.0984 13.8234 12.454 13.3293C12.8095 12.8352 13.0006 12.2417 13.0001 11.633C12.9995 11.4385 13.0627 11.2491 13.1801 11.094L14.8001 8.934C15.0938 8.54201 15.5034 8.25242 15.9709 8.10627C16.4385 7.96012 16.9401 7.96482 17.4048 8.11972C17.8695 8.27462 18.2737 8.57185 18.56 8.96928C18.8463 9.36671 19.0003 9.84417 19.0001 10.334V12.925C19.0014 13.7403 19.3259 14.5218 19.9025 15.0982C20.4791 15.6747 21.2607 15.9989 22.0761 16C22.4264 15.9995 22.768 16.1094 23.0522 16.3143C23.3364 16.5192 23.5488 16.8085 23.6591 17.141C23.8274 17.6473 24.1043 18.1108 24.4703 18.499C24.8363 18.8873 25.2826 19.191 25.7781 19.389L28.1851 20.352C29.5528 20.8906 31.03 21.0922 32.492 20.9397C33.954 20.7873 35.3579 20.2852 36.5851 19.476L45.9701 13.219C46.3828 12.9463 46.6966 12.5479 46.8649 12.0828C47.0332 11.6177 47.0472 11.1107 46.9046 10.637C46.762 10.1634 46.4705 9.74833 46.0734 9.45344C45.6763 9.15855 45.1947 8.99954 44.7001 9H43.5001C43.3674 9 43.2403 8.94732 43.1465 8.85355C43.0527 8.75979 43.0001 8.63261 43.0001 8.5C43.0001 8.36739 43.0527 8.24021 43.1465 8.14645C43.2403 8.05268 43.3674 8 43.5001 8C44.7174 7.99746 45.8965 7.57461 46.838 6.80294C47.7795 6.03127 48.4256 4.95813 48.6671 3.765C48.7104 3.54942 48.827 3.35548 48.9971 3.21605C49.1671 3.07662 49.3802 3.00029 49.6001 3C50.8568 3.0053 52.07 3.46106 53.0193 4.28454C53.9687 5.10802 54.5912 6.24463 54.7741 7.488C54.8768 8.18374 55.2255 8.81963 55.7567 9.28046C56.288 9.74129 56.9668 9.99656 57.6701 10C57.7576 10 57.8415 10.0348 57.9034 10.0967C57.9653 10.1585 58.0001 10.2425 58.0001 10.33C58.0006 10.7727 58.1767 11.1972 58.4898 11.5103C58.8028 11.8234 59.2273 11.9995 59.6701 12C60.0226 12.0005 60.3606 12.1408 60.6099 12.3901C60.8592 12.6394 60.9995 12.9774 61.0001 13.33C61.0012 13.7283 60.9233 14.123 60.7709 14.491C60.6185 14.859 60.3945 15.1931 60.1121 15.474L53.2931 22.293C53.0693 22.5178 52.8033 22.696 52.5103 22.8173C52.2173 22.9387 51.9032 23.0008 51.5861 23C51.4307 22.9997 51.2818 22.9379 51.172 22.8281C51.0621 22.7182 51.0003 22.5693 51.0001 22.414C51.0001 21.9365 50.8585 21.4698 50.5933 21.0728C50.328 20.6758 49.951 20.3664 49.5099 20.1837C49.0688 20.001 48.5834 19.9531 48.1151 20.0463C47.6468 20.1395 47.2167 20.3694 46.8791 20.707L45.0001 22.586C44.6819 22.9022 44.4297 23.2784 44.258 23.6928C44.0864 24.1071 43.9987 24.5515 44.0001 25C44.0001 25.5304 44.2108 26.0391 44.5858 26.4142C44.9609 26.7893 45.4696 27 46.0001 27Z" fill="#1B1717"/>
<path d="M42 37H39.721L38.948 34.684C38.8823 34.4839 38.755 34.3097 38.5844 34.1862C38.4139 34.0627 38.2086 33.9963 37.998 33.9963C37.7874 33.9963 37.5822 34.0627 37.4116 34.1862C37.241 34.3097 37.1138 34.4839 37.048 34.684L36.279 37H34C33.8023 37 33.609 37.0587 33.4446 37.1686C33.2802 37.2785 33.152 37.4346 33.0764 37.6173C33.0007 37.8 32.9809 38.0011 33.0194 38.195C33.058 38.389 33.1532 38.5671 33.293 38.707L34.855 40.271L34.055 42.684C33.99 42.8812 33.988 43.0937 34.0493 43.2921C34.1106 43.4905 34.2321 43.6649 34.397 43.7911C34.5619 43.9173 34.762 43.989 34.9695 43.9964C35.177 44.0037 35.3817 43.9463 35.555 43.832L38 42.2L40.445 43.83C40.6184 43.9443 40.8231 44.0017 41.0306 43.9944C41.2381 43.987 41.4382 43.9153 41.603 43.7891C41.7679 43.6629 41.8894 43.4885 41.9507 43.2901C42.012 43.0918 42.01 42.8792 41.945 42.682L41.145 40.269L42.707 38.705C42.8462 38.565 42.9408 38.3871 42.9789 38.1934C43.0171 37.9998 42.9971 37.7992 42.9216 37.617C42.846 37.4347 42.7181 37.2788 42.5542 37.169C42.3902 37.0592 42.1974 37.0004 42 37ZM39.293 39.293C39.1619 39.4243 39.0699 39.5896 39.0273 39.7703C38.9847 39.951 38.9933 40.1399 39.052 40.316L39.13 40.551L38.555 40.168C38.3907 40.0584 38.1976 39.9999 38 39.9999C37.8025 39.9999 37.6094 40.0584 37.445 40.168L36.87 40.551L36.948 40.316C37.0068 40.1399 37.0153 39.951 36.9728 39.7703C36.9302 39.5896 36.8382 39.4243 36.707 39.293L36.414 39H37C37.2098 38.9998 37.4143 38.9337 37.5844 38.811C37.7545 38.6882 37.8817 38.515 37.948 38.316L38 38.162L38.052 38.316C38.1183 38.515 38.2455 38.6882 38.4157 38.811C38.5858 38.9337 38.7902 38.9998 39 39H39.586L39.293 39.293ZM44 45H46V47H44V45ZM46 41H48V43H46V41ZM46 37H48V39H46V37ZM44 33H46V35H44V33Z" fill="#1B1717"/>
</svg>
