<svg width="16" height="16" viewBox="0 0 16 16" fill="none" xmlns="http://www.w3.org/2000/svg">
<g clip-path="url(#clip0_629_14)">
<path d="M14.6667 9.66667C14.6667 8.01267 13.3207 6.66667 11.6667 6.66667C10.0127 6.66667 8.66667 8.01267 8.66667 9.66667V10H7.412L8.042 14.2907C8.18467 15.2653 9.03533 16 10.0207 16H13.3167C14.302 16 15.152 15.2647 15.2953 14.2907L15.926 10H14.6667V9.66667ZM10 9.66667C10 8.748 10.748 8 11.6667 8C12.5853 8 13.3333 8.748 13.3333 9.66667V10H10V9.66667ZM13.976 14.0973C13.928 14.422 13.6447 14.6667 13.3167 14.6667H10.0207C9.69267 14.6667 9.40933 14.422 9.36133 14.0967L8.956 11.3333H14.3827L13.976 14.0973ZM4 3C4 3.552 3.552 4 3 4C2.448 4 2 3.552 2 3C2 2.448 2.448 2 3 2C3.552 2 4 2.448 4 3ZM6.66667 3C6.66667 3.552 6.21867 4 5.66667 4C5.11467 4 4.66667 3.552 4.66667 3C4.66667 2.448 5.11467 2 5.66667 2C6.21867 2 6.66667 2.448 6.66667 3ZM14 0H2C0.897333 0 0 0.897333 0 2V14.6667H6.76733C6.75467 14.6047 6.554 13.3333 6.554 13.3333H1.33333V6H16V2C16 0.897333 15.1027 0 14 0ZM14.6667 4.66667H1.33333V2C1.33333 1.63267 1.63267 1.33333 2 1.33333H14C14.3673 1.33333 14.6667 1.63267 14.6667 2V4.66667Z" fill="#EEEBDD"/>
</g>
<defs>
<clipPath id="clip0_629_14">
<rect width="16" height="16" fill="white"/>
</clipPath>
</defs>
</svg>
