<svg width="64" height="64" viewBox="0 0 64 64" fill="none" xmlns="http://www.w3.org/2000/svg">
<path d="M22.939 3.939L22.139 3.139C21.7797 2.77852 21.3528 2.49239 20.8828 2.29695C20.4129 2.10152 19.909 2.00061 19.4 2C18.6803 1.99986 17.9748 2.20019 17.3627 2.57853C16.7505 2.95687 16.2558 3.49826 15.934 4.142L13.5 9.009C13.3514 9.30631 13.1231 9.55645 12.8406 9.73145C12.558 9.90646 12.2324 9.99944 11.9 10C11.3474 10.0022 10.8081 9.82983 10.3592 9.50751C9.91028 9.18518 9.57459 8.72935 9.4 8.205C9.28304 7.85447 9.05889 7.54955 8.75923 7.33332C8.45956 7.11709 8.09953 7.0005 7.73 7C7.26272 7.00018 6.8146 7.18576 6.484 7.516L5.621 8.379C5.42403 8.57598 5.19018 8.73222 4.9328 8.83877C4.67542 8.94533 4.39956 9.00011 4.121 9C3.55856 9.00027 3.01923 9.22381 2.62152 9.62152C2.22381 10.0192 2.00026 10.5586 2 11.121V18.464C2 19.4018 2.37254 20.3012 3.03567 20.9643C3.6988 21.6275 4.59819 22 5.536 22C6.00033 22 6.4601 21.9085 6.88906 21.7307C7.31802 21.5529 7.70775 21.2924 8.036 20.964L10.226 18.774C10.472 18.5279 10.7642 18.3329 11.0858 18.2001C11.4074 18.0672 11.7521 17.9993 12.1 18C12.6535 18.0014 13.1925 18.1765 13.6411 18.5008C14.0897 18.825 14.4251 19.2819 14.6 19.807L14.793 20.384C16.2429 24.7348 18.6861 28.6882 21.929 31.931C23.3037 33.3069 24.8111 34.5436 26.429 35.623L33.083 40.059C33.9798 40.6555 34.7153 41.4643 35.2242 42.4135C35.733 43.3627 35.9996 44.423 36 45.5C36.0001 46.5766 35.7344 47.6365 35.2264 48.5857C34.7184 49.5349 33.9838 50.3439 33.088 50.941L31.625 51.917C30.5653 52.623 29.3204 52.9998 28.047 53C27.3536 52.9999 26.6648 52.8881 26.007 52.669L24.949 52.316C24.3205 52.1069 23.6624 52.0002 23 52C22.4696 52 21.9609 52.2107 21.5858 52.5858C21.2107 52.9609 21 53.4696 21 54C21 54.5304 21.2107 55.0391 21.5858 55.4142C21.9609 55.7893 22.4696 56 23 56C24.2982 56 25.5614 56.4211 26.6 57.2L28.6 58.7C28.7242 58.7931 28.825 58.9139 28.8944 59.0528C28.9639 59.1916 29 59.3448 29 59.5C29 60.163 29.2634 60.7989 29.7322 61.2678C30.2011 61.7366 30.837 62 31.5 62C32.163 62 32.7989 61.7366 33.2678 61.2678C33.7366 60.7989 34 60.163 34 59.5V56.981C34 56.4556 34.2087 55.9517 34.5802 55.5802C34.9517 55.2087 35.4556 55 35.981 55C36.2961 55 36.6067 54.9248 36.8869 54.7806C37.1671 54.6364 37.4088 54.4274 37.592 54.171L40.805 49.671C41.5816 48.583 41.9993 47.2797 42 45.943C42.0001 44.6759 41.625 43.4372 40.922 42.383L40.258 41.383C40.0906 41.1318 40.0009 40.8369 40 40.535C40 40.3334 40.0397 40.1338 40.1168 39.9476C40.194 39.7613 40.3071 39.5921 40.4496 39.4496C40.5921 39.3071 40.7613 39.194 40.9476 39.1168C41.1338 39.0397 41.3334 39 41.535 39C41.9899 38.9999 42.4385 39.1058 42.8454 39.3092C43.2523 39.5127 43.6061 39.808 43.879 40.172L45.6 42.472C45.7249 42.6365 45.8863 42.7698 46.0714 42.8614C46.2566 42.953 46.4604 43.0005 46.667 43C46.8421 43 47.0154 42.9655 47.1771 42.8985C47.3388 42.8315 47.4858 42.7334 47.6096 42.6096C47.7334 42.4858 47.8315 42.3388 47.8985 42.1771C47.9655 42.0154 48 41.8421 48 41.667V39.746C48.0001 38.6072 47.6633 37.4938 47.032 36.546C46.361 35.5403 45.391 34.7707 44.259 34.346L39.15 32.431C38.8122 32.3045 38.521 32.0779 38.3155 31.7814C38.11 31.4849 37.9999 31.1327 38 30.772C38 30.302 37.8133 29.8513 37.481 29.519C37.1487 29.1867 36.698 29 36.228 29C35.2434 29.0002 34.2756 28.7453 33.4188 28.2602C32.562 27.7751 31.8455 27.0763 31.339 26.232L30.339 24.558C30.1184 24.1932 30.0013 23.7753 30 23.349C30 22.726 29.7525 22.1285 29.312 21.688C28.8715 21.2475 28.274 21 27.651 21H25.472C25.1617 21 24.8556 20.9277 24.578 20.789C24.1039 20.5519 23.7052 20.1875 23.4265 19.7366C23.1478 19.2857 23.0001 18.7661 23 18.236C22.9999 16.7655 23.3422 15.3152 24 14L22.414 12.414C22.1489 12.1487 22 11.789 22 11.414C22 11.039 22.149 10.6793 22.4142 10.4142C22.6793 10.149 23.039 10 23.414 10H25.5C26.163 10 26.7989 9.73661 27.2678 9.26777C27.7366 8.79893 28 8.16304 28 7.5C28 6.83696 27.7366 6.20107 27.2678 5.73223C26.7989 5.26339 26.163 5 25.5 5C24.5395 4.99971 23.6183 4.61809 22.939 3.939Z" fill="#006837"/>
<path d="M47.032 36.547C46.361 35.5413 45.391 34.7717 44.259 34.347L39.15 32.431C38.8122 32.3045 38.521 32.0779 38.3155 31.7814C38.11 31.4849 37.9999 31.1328 38 30.772C38 30.3021 37.8133 29.8514 37.481 29.519C37.1487 29.1867 36.698 29 36.228 29C35.2434 29.0002 34.2756 28.7453 33.4188 28.2602C32.562 27.7751 31.8455 27.0764 31.339 26.232L30.339 24.558C30.1184 24.1932 30.0013 23.7753 30 23.349C30 22.726 29.7525 22.1286 29.312 21.688C28.8715 21.2475 28.274 21 27.651 21H25.472C25.1617 21 24.8556 20.9278 24.578 20.789C24.1039 20.5519 23.7052 20.1875 23.4265 19.7366C23.1478 19.2857 23.0001 18.7661 23 18.236C22.9999 16.7655 23.3422 15.3152 24 14L22.414 12.414C22.2162 12.2163 22.0815 11.9643 22.0269 11.69C21.9723 11.4157 22.0003 11.1313 22.1073 10.8729C22.2144 10.6145 22.3957 10.3936 22.6283 10.2382C22.8609 10.0829 23.1343 9.99998 23.414 10H25.5C26.163 10 26.7989 9.73665 27.2678 9.26781C27.7366 8.79897 28 8.16308 28 7.50004C28 6.837 27.7366 6.20111 27.2678 5.73227C26.7989 5.26343 26.163 5.00004 25.5 5.00004C24.5395 4.99975 23.6183 4.61813 22.939 3.93904L22.139 3.13904C21.7047 2.70507 21.1736 2.38046 20.5893 2.19195C20.0051 2.00344 19.3844 1.95641 18.7784 2.05474C18.1724 2.15307 17.5984 2.39395 17.1037 2.75754C16.609 3.12113 16.2078 3.59702 15.933 4.14604L14.008 7.98404L13.5 9.00904C13.3514 9.30635 13.1231 9.55649 12.8406 9.73149C12.558 9.9065 12.2324 9.99948 11.9 10C11.3474 10.0022 10.8081 9.82987 10.3592 9.50755C9.91028 9.18522 9.57459 8.72939 9.4 8.20504C9.30509 7.91999 9.13888 7.66394 8.91715 7.46123C8.69541 7.25851 8.42553 7.11585 8.13314 7.04681C7.84075 6.97777 7.53556 6.98464 7.24657 7.06677C6.95758 7.14889 6.69439 7.30355 6.482 7.51604L5.619 8.37904C5.22157 8.77619 4.68286 8.99952 4.121 9.00004C4.084 9.00004 4.048 9.00904 4.011 9.01104C4.011 9.04804 4 9.08404 4 9.12104V16.464C4.00013 17.1633 4.20758 17.8468 4.59613 18.4282C4.98468 19.0096 5.53688 19.4627 6.18292 19.7303C6.82896 19.9978 7.53983 20.0679 8.22566 19.9315C8.91149 19.7951 9.54148 19.4584 10.036 18.964L10.226 18.774L12.226 16.774C12.472 16.528 12.7642 16.3329 13.0858 16.2001C13.4074 16.0673 13.7521 15.9993 14.1 16C14.6535 16.0014 15.1925 16.1766 15.6411 16.5008C16.0897 16.825 16.4251 17.2819 16.6 17.807L16.793 18.384C18.2429 22.7349 20.6861 26.6883 23.929 29.931C25.3035 31.3072 26.8108 32.5439 28.429 33.623L35.083 38.059C35.9788 38.6562 36.7133 39.4652 37.2213 40.4144C37.7293 41.3636 37.9952 42.4235 37.9952 43.5C37.9952 44.5766 37.7293 45.6365 37.2213 46.5857C36.7133 47.5349 35.9788 48.3439 35.083 48.941L34.946 49.033C34.4627 49.7903 33.8285 50.4398 33.083 50.941L31.62 51.917C30.8026 52.4618 29.8716 52.8127 28.898 52.943C27.9244 53.0733 26.9339 52.9796 26.002 52.669L24.944 52.316C24.3171 52.1075 23.6607 52.0008 23 52C23 52.5305 23.2107 53.0392 23.5858 53.4143C23.9609 53.7893 24.4696 54 25 54C26.2982 54 27.5614 54.4211 28.6 55.2L30.6 56.7C30.7242 56.7932 30.825 56.914 30.8944 57.0528C30.9639 57.1917 31 57.3448 31 57.5C30.9967 57.8677 31.0753 58.2314 31.23 58.5649C31.3847 58.8984 31.6117 59.1934 31.8944 59.4283C32.1772 59.6632 32.5088 59.8323 32.865 59.9232C33.2212 60.0141 33.5932 60.0247 33.954 59.954C33.9831 59.8044 33.9985 59.6525 34 59.5V56.981C34 56.4556 34.2087 55.9518 34.5802 55.5803C34.9517 55.2088 35.4556 55 35.981 55H36C36.3117 54.9972 36.6184 54.9209 36.895 54.7772C37.1717 54.6335 37.4105 54.4265 37.592 54.173L38.476 52.936L40.805 49.676C41.5617 48.6161 41.9782 47.351 41.9991 46.0488C42.02 44.7465 41.6443 43.4688 40.922 42.385L40.258 41.385C40.1043 41.1539 40.0161 40.8854 40.0029 40.6081C39.9897 40.3309 40.0519 40.0552 40.1829 39.8105C40.314 39.5658 40.5089 39.3612 40.747 39.2184C40.9851 39.0757 41.2574 39.0003 41.535 39C41.988 39.0103 42.4331 39.1207 42.8383 39.3234C43.2436 39.526 43.599 39.8158 43.879 40.172L45.6 42.472C45.7681 42.6955 46.0022 42.8605 46.2692 42.9437C46.5362 43.0268 46.8226 43.024 47.0878 42.9356C47.3531 42.8472 47.5839 42.6776 47.7476 42.4509C47.9113 42.2241 47.9996 41.9517 48 41.672V39.746C47.9999 38.6076 47.6631 37.4946 47.032 36.547Z" fill="#009245"/>
<path d="M45 62C54.3888 62 62 54.3888 62 45C62 35.6112 54.3888 28 45 28C35.6112 28 28 35.6112 28 45C28 54.3888 35.6112 62 45 62Z" fill="#159B1A"/>
<path d="M45 28C41.4697 27.9984 38.0274 29.102 35.156 31.156C32.8229 34.4273 31.7252 38.4199 32.058 42.4241C32.3909 46.4284 34.1327 50.185 36.9739 53.0262C39.8151 55.8674 43.5716 57.6092 47.5759 57.942C51.5802 58.2749 55.5727 57.1772 58.844 54.844C60.6561 52.3032 61.733 49.3122 61.9565 46.1994C62.1801 43.0866 61.5415 39.9724 60.1111 37.1987C58.6807 34.4251 56.5136 32.0992 53.8479 30.4764C51.1822 28.8537 48.1208 27.9969 45 28Z" fill="#2BB22B"/>
<path d="M62 45C61.9979 41.5308 60.9339 38.1454 58.951 35.2987C56.9681 32.452 54.1614 30.2805 50.908 29.076L50.992 60.8931C54.2249 59.677 57.0104 57.5045 58.9771 54.665C60.9438 51.8256 61.9983 48.4541 62 45Z" fill="#C1272D"/>
<path d="M45 28C42.9493 28.0035 40.9162 28.3796 39 29.11V60.89C42.8607 62.368 47.1313 62.368 50.992 60.89L50.908 29.073C49.0183 28.3662 47.0175 28.0028 45 28Z" fill="#E6E6E6"/>
<path d="M39 29.111V54.726C42.4412 57.2773 46.7335 58.4038 50.984 57.871L50.915 29.079C47.0736 27.6295 42.8336 27.6408 39 29.111Z" fill="white"/>
<path d="M50.926 29.083L50.986 57.871C53.8185 57.54 56.5215 56.4988 58.844 54.844C60.6211 52.3588 61.6924 49.4389 61.944 46.394V46.363C61.9814 45.913 62 45.4587 62 45C61.9979 41.5341 60.9359 38.1518 58.9565 35.3067C56.9771 32.4617 54.175 30.29 50.926 29.083Z" fill="#DD1F2D"/>
<path d="M12.084 34C12.6734 33.9999 13.2537 34.1454 13.7734 34.4235C14.293 34.7015 14.736 35.1036 15.063 35.594C15.674 36.5109 16 37.5881 16 38.69C16 39.1055 15.9182 39.5169 15.7591 39.9008C15.6001 40.2846 15.3669 40.6333 15.073 40.927C14.7328 41.2673 14.4629 41.6712 14.2788 42.1158C14.0947 42.5603 14 43.0368 14 43.518V46.382C13.9997 46.7884 13.9052 47.1892 13.724 47.553C13.5065 47.9879 13.1722 48.3536 12.7586 48.6092C12.3449 48.8648 11.8682 49.0001 11.382 49H11.14C10.3072 49 9.50855 48.6692 8.91968 48.0803C8.33082 47.4915 8 46.6928 8 45.86C8.00008 45.2945 8.1319 44.7367 8.385 44.231C8.78921 43.4214 8.99975 42.5289 9 41.624C8.99983 40.5562 8.75128 39.5032 8.274 38.548C8.09407 38.1878 8.00028 37.7907 8 37.388C7.99996 36.961 8.10536 36.5406 8.30685 36.1641C8.50834 35.7877 8.79968 35.4668 9.155 35.23L10.1 34.6C10.6877 34.2087 11.378 34 12.084 34Z" fill="#006837"/>
<path d="M15.0631 35.594C14.6749 34.9988 14.1155 34.5352 13.4585 34.2646C12.8014 33.9939 12.0778 33.9289 11.3831 34.078L11.1551 34.23C10.629 34.5806 10.2491 35.1113 10.0868 35.7223C9.9246 36.3334 9.99118 36.9826 10.2741 37.548C10.7513 38.5032 10.9999 39.5562 11.0001 40.624C10.9998 41.5289 10.7893 42.4214 10.3851 43.231C10.132 43.7367 10.0001 44.2945 10.0001 44.86C10.0001 45.2724 10.0813 45.6807 10.2391 46.0616C10.3969 46.4426 10.6282 46.7887 10.9197 47.0803C11.2113 47.3719 11.5575 47.6032 11.9384 47.761C12.3194 47.9188 12.7277 48 13.1401 48H13.3821C13.3951 48 13.4061 47.995 13.4191 47.995C13.8085 47.5494 14.0159 46.9736 14.0001 46.382V43.518C14 43.0368 14.0948 42.5603 14.2789 42.1158C14.463 41.6712 14.7328 41.2673 15.0731 40.927C15.367 40.6333 15.6001 40.2846 15.7592 39.9008C15.9182 39.5169 16.0001 39.1055 16.0001 38.69C16.0001 37.5881 15.6741 36.5109 15.0631 35.594Z" fill="#009245"/>
<path d="M7.00003 45.86C7.00109 46.9577 7.43761 48.0101 8.21378 48.7862C8.98995 49.5624 10.0424 49.9989 11.14 50H11.382C12.3416 50 13.2618 49.6188 13.9403 48.9403C14.6189 48.2618 15 47.3415 15 46.382V43.518C14.999 43.168 15.0675 42.8213 15.2013 42.4979C15.3352 42.1745 15.5319 41.8809 15.78 41.634C16.1681 41.2482 16.4757 40.7893 16.6852 40.2837C16.8946 39.7782 17.0016 39.2362 17 38.689C17.0028 37.3906 16.62 36.1206 15.9 35.04C15.2262 34.0292 14.1784 33.3275 12.9872 33.0891C11.796 32.8508 10.5589 33.0953 9.54803 33.769L8.60003 34.4C7.87077 34.8861 7.3442 35.6219 7.11935 36.469C6.8945 37.3161 6.98685 38.2162 7.37903 39C7.78551 39.8151 7.99804 40.7132 8.00003 41.624C7.99909 42.3737 7.82453 43.113 7.49003 43.784C7.16836 44.4288 7.00063 45.1394 7.00003 45.86ZM9.16803 38.1C8.99456 37.7527 8.9538 37.354 9.05341 36.9788C9.15302 36.6035 9.38614 36.2775 9.70903 36.062L10.653 35.433C11.2225 35.0537 11.9193 34.916 12.5903 35.0503C13.2612 35.1846 13.8514 35.5797 14.231 36.149C14.7332 36.9008 15.0008 37.7849 15 38.689C15.0009 38.9734 14.9453 39.2552 14.8365 39.518C14.7276 39.7808 14.5677 40.0194 14.366 40.22C13.9316 40.6521 13.5871 41.166 13.3526 41.7321C13.1182 42.2983 12.9983 42.9053 13 43.518V46.382C12.9997 46.6333 12.9412 46.8811 12.829 47.106C12.6954 47.3752 12.489 47.6017 12.2332 47.7597C11.9775 47.9177 11.6826 48.0009 11.382 48H11.14C10.5726 47.9995 10.0286 47.7738 9.62741 47.3726C9.2262 46.9714 9.00056 46.4274 9.00003 45.86C9.00079 45.4498 9.09627 45.0453 9.27903 44.678C9.75199 43.7293 9.99878 42.684 10 41.624C9.99836 40.4009 9.7136 39.1947 9.16803 38.1Z" fill="#1B1717"/>
<path d="M45 27C42.5236 26.9998 40.0742 27.514 37.807 28.51C37.3458 28.1813 36.7943 28.0032 36.228 28C35.4171 27.9971 34.6207 27.7855 33.9152 27.3857C33.2098 26.9859 32.6191 26.4112 32.2 25.717L31.195 24.043C31.068 23.8338 31.0006 23.5938 31 23.349C30.9992 22.4611 30.6461 21.6097 30.0182 20.9818C29.3903 20.3539 28.539 20.0008 27.651 20H25.472C25.317 19.9995 25.1641 19.9636 25.025 19.895C24.7164 19.7416 24.4568 19.505 24.2757 19.2118C24.0946 18.9186 23.9991 18.5806 24 18.236C24.0015 16.9208 24.3079 15.6239 24.895 14.447C24.9887 14.2593 25.021 14.0468 24.9872 13.8397C24.9535 13.6326 24.8555 13.4413 24.707 13.293L23.121 11.707C23.063 11.6491 23.0235 11.5753 23.0075 11.4949C22.9914 11.4146 22.9996 11.3312 23.031 11.2555C23.0624 11.1798 23.1155 11.1151 23.1837 11.0696C23.2519 11.0241 23.332 10.9999 23.414 11H25.5C26.4283 11 27.3185 10.6313 27.9749 9.97489C28.6313 9.31852 29 8.42828 29 7.50002C29 6.57176 28.6313 5.68152 27.9749 5.02515C27.3185 4.36877 26.4283 4.00002 25.5 4.00002C25.1555 4.00122 24.8142 3.93394 24.4959 3.8021C24.1776 3.67026 23.8887 3.47648 23.646 3.23202L22.846 2.43202C22.2998 1.88491 21.6314 1.47556 20.8958 1.23777C20.1602 0.999984 19.3786 0.940572 18.6156 1.06444C17.8525 1.18832 17.1299 1.49192 16.5073 1.95019C15.8847 2.40845 15.38 3.00824 15.035 3.70002L12.6 8.56202C12.5342 8.69393 12.4329 8.80484 12.3074 8.88223C12.182 8.95962 12.0374 9.00042 11.89 9.00002C11.5489 9.00051 11.2164 8.89339 10.9397 8.69392C10.663 8.49445 10.4563 8.21278 10.349 7.88902C10.2002 7.44221 9.93967 7.04087 9.5921 6.72311C9.24453 6.40536 8.82149 6.18175 8.36317 6.07353C7.90484 5.96531 7.42646 5.97608 6.97347 6.10481C6.52048 6.23354 6.10792 6.47595 5.775 6.80902L4.912 7.67202C4.80821 7.77603 4.68491 7.85854 4.54918 7.91483C4.41345 7.97111 4.26794 8.00006 4.121 8.00002C3.2935 8.00081 2.50013 8.32989 1.915 8.91502C1.32987 9.50014 1.00079 10.2935 1 11.121V18.464C0.999695 19.3612 1.26554 20.2384 1.76389 20.9845C2.26225 21.7306 2.97071 22.3121 3.79965 22.6554C4.62858 22.9987 5.54073 23.0885 6.42068 22.9132C7.30062 22.738 8.10882 22.3057 8.743 21.671L10.933 19.481C11.1311 19.2831 11.3765 19.1391 11.6459 19.0627C11.9153 18.9862 12.1998 18.9798 12.4723 19.0441C12.7449 19.1084 12.9965 19.2413 13.2033 19.4301C13.4101 19.6189 13.5652 19.8574 13.654 20.123L13.846 20.7C15.9943 27.1432 20.2283 32.6868 25.879 36.455L28.374 38.118C27.4616 40.3141 26.9945 42.6696 27 45.0477C27.0055 47.4258 27.4834 49.7792 28.406 51.971C27.702 52.0231 26.9945 51.9378 26.323 51.72L25.265 51.368C24.5347 51.1242 23.7699 50.9999 23 51C22.2044 51 21.4413 51.3161 20.8787 51.8787C20.3161 52.4413 20 53.2044 20 54C20 54.7957 20.3161 55.5587 20.8787 56.1213C21.4413 56.6839 22.2044 57 23 57C24.0815 57.002 25.1336 57.3527 26 58L28 59.5C27.9966 60.3909 28.334 61.2493 28.943 61.8995C29.5519 62.5498 30.3864 62.9426 31.2756 62.9975C32.1648 63.0525 33.0413 62.7654 33.7257 62.1952C34.4101 61.6249 34.8506 60.8145 34.957 59.93C37.291 61.5019 39.9611 62.5046 42.7528 62.8577C45.5446 63.2108 48.3802 62.9045 51.0321 61.9633C53.684 61.0221 56.0783 59.4723 58.0228 57.4382C59.9673 55.4041 61.4078 52.9425 62.2287 50.2509C63.0496 47.5593 63.228 44.7127 62.7495 41.9397C62.2711 39.1667 61.1492 36.5445 59.4739 34.2836C57.7986 32.0227 55.6165 30.186 53.1028 28.9211C50.5892 27.6562 47.814 26.9982 45 27ZM29 45C29.0042 42.003 29.8501 39.0674 31.4413 36.5277C33.0325 33.988 35.305 31.9462 38 30.635V59.365C35.305 58.0538 33.0325 56.0121 31.4413 53.4723C29.8501 50.9326 29.0042 47.997 29 45ZM26.989 34.791C21.7077 31.2702 17.7505 26.0895 15.743 20.068L15.551 19.491C15.3546 18.9019 15.0109 18.3728 14.5526 17.9539C14.0942 17.535 13.5363 17.2402 12.932 17.0975C12.3276 16.9548 11.6968 16.969 11.0995 17.1387C10.5021 17.3084 9.9581 17.6279 9.519 18.067L7.329 20.257C6.97434 20.6116 6.5225 20.8531 6.03063 20.9509C5.53875 21.0487 5.02891 20.9985 4.56558 20.8066C4.10224 20.6146 3.7062 20.2897 3.42754 19.8727C3.14887 19.4557 3.00009 18.9655 3 18.464V11.121C3.00027 10.8238 3.11845 10.5388 3.32863 10.3286C3.5388 10.1185 3.82377 10.0003 4.121 10C4.53104 10.0012 4.93724 9.92103 5.31607 9.76414C5.69491 9.60725 6.03886 9.37676 6.328 9.08602L7.191 8.22302C7.28588 8.13783 7.4 8.07692 7.52358 8.04548C7.64716 8.01404 7.77651 8.01303 7.90057 8.04252C8.02462 8.07201 8.13968 8.13113 8.23589 8.21481C8.3321 8.29849 8.4066 8.40425 8.453 8.52302C8.69322 9.2449 9.15477 9.87275 9.77211 10.3174C10.3895 10.7621 11.1312 11.0009 11.892 11C12.4113 11.0023 12.9208 10.8589 13.3628 10.5862C13.8047 10.3134 14.1612 9.92224 14.392 9.45702L16.826 4.58902C17.0299 4.18237 17.3274 3.82992 17.6941 3.56064C18.0608 3.29135 18.4861 3.11292 18.9351 3.04C19.3841 2.96708 19.8441 3.00176 20.2771 3.14118C20.7101 3.28061 21.1039 3.5208 21.426 3.84202L22.226 4.64202C22.6544 5.07418 23.1645 5.41681 23.7266 5.64995C24.2886 5.88309 24.8915 6.00209 25.5 6.00002C25.8978 6.00002 26.2794 6.15805 26.5607 6.43936C26.842 6.72066 27 7.10219 27 7.50002C27 7.89784 26.842 8.27938 26.5607 8.56068C26.2794 8.84198 25.8978 9.00002 25.5 9.00002H23.414C22.9365 9 22.4698 9.14157 22.0728 9.40682C21.6758 9.67208 21.3664 10.0491 21.1837 10.4902C21.001 10.9313 20.9531 11.4167 21.0463 11.885C21.1395 12.3533 21.3694 12.7834 21.707 13.121L22.802 14.221C22.2749 15.4954 22.0031 16.8609 22.002 18.24C21.9996 18.9564 22.1979 19.6592 22.5746 20.2687C22.9512 20.8781 23.4911 21.3698 24.133 21.688C24.5493 21.8938 25.0076 22.0006 25.472 22H27.651C28.0087 22.0003 28.3517 22.1425 28.6046 22.3954C28.8575 22.6484 28.9997 22.9913 29 23.349C29 23.9564 29.1652 24.5524 29.478 25.073L30.478 26.747C30.9876 27.5885 31.6753 28.308 32.4929 28.8552C33.3104 29.4023 34.2378 29.7637 35.21 29.914C32.7332 31.525 30.6881 33.7174 29.253 36.3L26.989 34.791ZM33 59.5C33 59.8978 32.842 60.2794 32.5607 60.5607C32.2794 60.842 31.8978 61 31.5 61C31.1022 61 30.7206 60.842 30.4393 60.5607C30.158 60.2794 30 59.8978 30 59.5C29.9993 59.1897 29.9267 58.8837 29.7879 58.6061C29.6491 58.3285 29.4479 58.0868 29.2 57.9L27.2 56.4C25.987 55.4938 24.5141 55.0029 23 55C22.7348 55 22.4804 54.8947 22.2929 54.7071C22.1054 54.5196 22 54.2652 22 54C22 53.7348 22.1054 53.4804 22.2929 53.2929C22.4804 53.1054 22.7348 53 23 53C23.5551 52.9998 24.1065 53.0893 24.633 53.265L25.69 53.618C26.8719 54.0046 28.1316 54.0902 29.355 53.867C30.3195 55.5569 31.5503 57.0802 33 58.378V59.5ZM40 60.189V29.811C43.2149 28.7411 46.6881 28.7295 49.91 29.778L49.99 60.192C46.7475 61.2713 43.2425 61.2713 40 60.192V60.189ZM51.988 59.371L51.912 30.592C54.626 31.8875 56.9189 33.9233 58.5267 36.4648C60.1345 39.0063 60.9917 41.9503 60.9996 44.9576C61.0076 47.965 60.1659 50.9134 58.5716 53.4634C56.9773 56.0134 54.6951 58.0612 51.988 59.371Z" fill="#1B1717"/>
</svg>
