<svg width="64" height="64" viewBox="0 0 64 64" fill="none" xmlns="http://www.w3.org/2000/svg">
<path d="M7.00003 45.86C7.00109 46.9577 7.43761 48.0101 8.21378 48.7862C8.98995 49.5624 10.0424 49.9989 11.14 50H11.382C12.3416 50 13.2618 49.6188 13.9403 48.9403C14.6189 48.2618 15 47.3415 15 46.382V43.518C14.999 43.168 15.0675 42.8213 15.2013 42.4979C15.3352 42.1745 15.5319 41.8809 15.78 41.634C16.1681 41.2482 16.4757 40.7893 16.6852 40.2837C16.8946 39.7782 17.0016 39.2362 17 38.689C17.0028 37.3906 16.62 36.1206 15.9 35.04C15.2262 34.0292 14.1784 33.3275 12.9872 33.0891C11.796 32.8508 10.5589 33.0953 9.54803 33.769L8.60003 34.4C7.87077 34.8861 7.3442 35.6219 7.11935 36.469C6.8945 37.3161 6.98685 38.2162 7.37903 39C7.78551 39.8151 7.99804 40.7132 8.00003 41.624C7.99909 42.3737 7.82453 43.113 7.49003 43.784C7.16836 44.4288 7.00063 45.1394 7.00003 45.86ZM9.16803 38.1C8.99456 37.7527 8.9538 37.354 9.05341 36.9788C9.15302 36.6035 9.38614 36.2775 9.70903 36.062L10.653 35.433C11.2225 35.0537 11.9193 34.916 12.5903 35.0503C13.2612 35.1846 13.8514 35.5797 14.231 36.149C14.7332 36.9008 15.0008 37.7849 15 38.689C15.0009 38.9734 14.9453 39.2552 14.8365 39.518C14.7276 39.7808 14.5677 40.0194 14.366 40.22C13.9316 40.6521 13.5871 41.166 13.3526 41.7321C13.1182 42.2983 12.9983 42.9053 13 43.518V46.382C12.9997 46.6333 12.9412 46.8811 12.829 47.106C12.6954 47.3752 12.489 47.6017 12.2332 47.7597C11.9775 47.9177 11.6826 48.0009 11.382 48H11.14C10.5726 47.9995 10.0286 47.7738 9.62741 47.3726C9.2262 46.9714 9.00056 46.4274 9.00003 45.86C9.00079 45.4498 9.09627 45.0453 9.27903 44.678C9.75199 43.7293 9.99878 42.684 10 41.624C9.99836 40.4009 9.7136 39.1947 9.16803 38.1Z" fill="#1B1717"/>
<path d="M45 27C42.5236 26.9998 40.0742 27.514 37.807 28.51C37.3458 28.1813 36.7943 28.0032 36.228 28C35.4171 27.9971 34.6207 27.7855 33.9152 27.3857C33.2098 26.9859 32.6191 26.4112 32.2 25.717L31.195 24.043C31.068 23.8338 31.0006 23.5938 31 23.349C30.9992 22.4611 30.6461 21.6097 30.0182 20.9818C29.3903 20.3539 28.539 20.0008 27.651 20H25.472C25.317 19.9995 25.1641 19.9636 25.025 19.895C24.7164 19.7416 24.4568 19.505 24.2757 19.2118C24.0946 18.9186 23.9991 18.5806 24 18.236C24.0015 16.9208 24.3079 15.6239 24.895 14.447C24.9887 14.2593 25.021 14.0468 24.9872 13.8397C24.9535 13.6326 24.8555 13.4413 24.707 13.293L23.121 11.707C23.063 11.6491 23.0235 11.5753 23.0075 11.4949C22.9914 11.4146 22.9996 11.3312 23.031 11.2555C23.0624 11.1798 23.1155 11.1151 23.1837 11.0696C23.2519 11.0241 23.332 10.9999 23.414 11H25.5C26.4283 11 27.3185 10.6313 27.9749 9.97489C28.6313 9.31852 29 8.42828 29 7.50002C29 6.57176 28.6313 5.68152 27.9749 5.02515C27.3185 4.36877 26.4283 4.00002 25.5 4.00002C25.1555 4.00122 24.8142 3.93394 24.4959 3.8021C24.1776 3.67026 23.8887 3.47648 23.646 3.23202L22.846 2.43202C22.2998 1.88491 21.6314 1.47556 20.8958 1.23777C20.1602 0.999984 19.3786 0.940572 18.6156 1.06444C17.8525 1.18832 17.1299 1.49192 16.5073 1.95019C15.8847 2.40845 15.38 3.00824 15.035 3.70002L12.6 8.56202C12.5342 8.69393 12.4329 8.80484 12.3074 8.88223C12.182 8.95962 12.0374 9.00042 11.89 9.00002C11.5489 9.00051 11.2164 8.89339 10.9397 8.69392C10.663 8.49445 10.4563 8.21278 10.349 7.88902C10.2002 7.44221 9.93967 7.04087 9.5921 6.72311C9.24453 6.40536 8.82149 6.18175 8.36317 6.07353C7.90484 5.96531 7.42646 5.97608 6.97347 6.10481C6.52048 6.23354 6.10792 6.47595 5.775 6.80902L4.912 7.67202C4.80821 7.77603 4.68491 7.85854 4.54918 7.91483C4.41345 7.97111 4.26794 8.00006 4.121 8.00002C3.2935 8.00081 2.50013 8.32989 1.915 8.91502C1.32987 9.50014 1.00079 10.2935 1 11.121V18.464C0.999695 19.3612 1.26554 20.2384 1.76389 20.9845C2.26225 21.7306 2.97071 22.3121 3.79965 22.6554C4.62858 22.9987 5.54073 23.0885 6.42068 22.9132C7.30062 22.738 8.10882 22.3057 8.743 21.671L10.933 19.481C11.1311 19.2831 11.3765 19.1391 11.6459 19.0627C11.9153 18.9862 12.1998 18.9798 12.4723 19.0441C12.7449 19.1084 12.9965 19.2413 13.2033 19.4301C13.4101 19.6189 13.5652 19.8574 13.654 20.123L13.846 20.7C15.9943 27.1432 20.2283 32.6868 25.879 36.455L28.374 38.118C27.4616 40.3141 26.9945 42.6696 27 45.0477C27.0055 47.4258 27.4834 49.7792 28.406 51.971C27.702 52.0231 26.9945 51.9378 26.323 51.72L25.265 51.368C24.5347 51.1242 23.7699 50.9999 23 51C22.2044 51 21.4413 51.3161 20.8787 51.8787C20.3161 52.4413 20 53.2044 20 54C20 54.7957 20.3161 55.5587 20.8787 56.1213C21.4413 56.6839 22.2044 57 23 57C24.0815 57.002 25.1336 57.3527 26 58L28 59.5C27.9966 60.3909 28.334 61.2493 28.943 61.8995C29.5519 62.5498 30.3864 62.9426 31.2756 62.9975C32.1648 63.0525 33.0413 62.7654 33.7257 62.1952C34.4101 61.6249 34.8506 60.8145 34.957 59.93C37.291 61.5019 39.9611 62.5046 42.7528 62.8577C45.5446 63.2108 48.3802 62.9045 51.0321 61.9633C53.684 61.0221 56.0783 59.4723 58.0228 57.4382C59.9673 55.4041 61.4078 52.9425 62.2287 50.2509C63.0496 47.5593 63.228 44.7127 62.7495 41.9397C62.2711 39.1667 61.1492 36.5445 59.4739 34.2836C57.7986 32.0227 55.6165 30.186 53.1028 28.9211C50.5892 27.6562 47.814 26.9982 45 27ZM29 45C29.0042 42.003 29.8501 39.0674 31.4413 36.5277C33.0325 33.988 35.305 31.9462 38 30.635V59.365C35.305 58.0538 33.0325 56.0121 31.4413 53.4723C29.8501 50.9326 29.0042 47.997 29 45ZM26.989 34.791C21.7077 31.2702 17.7505 26.0895 15.743 20.068L15.551 19.491C15.3546 18.9019 15.0109 18.3728 14.5526 17.9539C14.0942 17.535 13.5363 17.2402 12.932 17.0975C12.3276 16.9548 11.6968 16.969 11.0995 17.1387C10.5021 17.3084 9.9581 17.6279 9.519 18.067L7.329 20.257C6.97434 20.6116 6.5225 20.8531 6.03063 20.9509C5.53875 21.0487 5.02891 20.9985 4.56558 20.8066C4.10224 20.6146 3.7062 20.2897 3.42754 19.8727C3.14887 19.4557 3.00009 18.9655 3 18.464V11.121C3.00027 10.8238 3.11845 10.5388 3.32863 10.3286C3.5388 10.1185 3.82377 10.0003 4.121 10C4.53104 10.0012 4.93724 9.92103 5.31607 9.76414C5.69491 9.60725 6.03886 9.37676 6.328 9.08602L7.191 8.22302C7.28588 8.13783 7.4 8.07692 7.52358 8.04548C7.64716 8.01404 7.77651 8.01303 7.90057 8.04252C8.02462 8.07201 8.13968 8.13113 8.23589 8.21481C8.3321 8.29849 8.4066 8.40425 8.453 8.52302C8.69322 9.2449 9.15477 9.87275 9.77211 10.3174C10.3895 10.7621 11.1312 11.0009 11.892 11C12.4113 11.0023 12.9208 10.8589 13.3628 10.5862C13.8047 10.3134 14.1612 9.92224 14.392 9.45702L16.826 4.58902C17.0299 4.18237 17.3274 3.82992 17.6941 3.56064C18.0608 3.29135 18.4861 3.11292 18.9351 3.04C19.3841 2.96708 19.8441 3.00176 20.2771 3.14118C20.7101 3.28061 21.1039 3.5208 21.426 3.84202L22.226 4.64202C22.6544 5.07418 23.1645 5.41681 23.7266 5.64995C24.2886 5.88309 24.8915 6.00209 25.5 6.00002C25.8978 6.00002 26.2794 6.15805 26.5607 6.43936C26.842 6.72066 27 7.10219 27 7.50002C27 7.89784 26.842 8.27938 26.5607 8.56068C26.2794 8.84198 25.8978 9.00002 25.5 9.00002H23.414C22.9365 9 22.4698 9.14157 22.0728 9.40682C21.6758 9.67208 21.3664 10.0491 21.1837 10.4902C21.001 10.9313 20.9531 11.4167 21.0463 11.885C21.1395 12.3533 21.3694 12.7834 21.707 13.121L22.802 14.221C22.2749 15.4954 22.0031 16.8609 22.002 18.24C21.9996 18.9564 22.1979 19.6592 22.5746 20.2687C22.9512 20.8781 23.4911 21.3698 24.133 21.688C24.5493 21.8938 25.0076 22.0006 25.472 22H27.651C28.0087 22.0003 28.3517 22.1425 28.6046 22.3954C28.8575 22.6484 28.9997 22.9913 29 23.349C29 23.9564 29.1652 24.5524 29.478 25.073L30.478 26.747C30.9876 27.5885 31.6753 28.308 32.4929 28.8552C33.3104 29.4023 34.2378 29.7637 35.21 29.914C32.7332 31.525 30.6881 33.7174 29.253 36.3L26.989 34.791ZM33 59.5C33 59.8978 32.842 60.2794 32.5607 60.5607C32.2794 60.842 31.8978 61 31.5 61C31.1022 61 30.7206 60.842 30.4393 60.5607C30.158 60.2794 30 59.8978 30 59.5C29.9993 59.1897 29.9267 58.8837 29.7879 58.6061C29.6491 58.3285 29.4479 58.0868 29.2 57.9L27.2 56.4C25.987 55.4938 24.5141 55.0029 23 55C22.7348 55 22.4804 54.8947 22.2929 54.7071C22.1054 54.5196 22 54.2652 22 54C22 53.7348 22.1054 53.4804 22.2929 53.2929C22.4804 53.1054 22.7348 53 23 53C23.5551 52.9998 24.1065 53.0893 24.633 53.265L25.69 53.618C26.8719 54.0046 28.1316 54.0902 29.355 53.867C30.3195 55.5569 31.5503 57.0802 33 58.378V59.5ZM40 60.189V29.811C43.2149 28.7411 46.6881 28.7295 49.91 29.778L49.99 60.192C46.7475 61.2713 43.2425 61.2713 40 60.192V60.189ZM51.988 59.371L51.912 30.592C54.626 31.8875 56.9189 33.9233 58.5267 36.4648C60.1345 39.0063 60.9917 41.9503 60.9996 44.9576C61.0076 47.965 60.1659 50.9134 58.5716 53.4634C56.9773 56.0134 54.6951 58.0612 51.988 59.371Z" fill="#1B1717"/>
</svg>
