<svg width="24" height="24" viewBox="0 0 24 24" fill="none" xmlns="http://www.w3.org/2000/svg">
<g clip-path="url(#clip0_2_64)">
<path d="M22 14.5C22 12.019 19.981 10 17.5 10C15.019 10 13 12.019 13 14.5V15H11.118L12.063 21.436C12.277 22.898 13.553 24 15.031 24H19.975C21.453 24 22.728 22.897 22.943 21.436L23.889 15H22V14.5ZM15 14.5C15 13.122 16.122 12 17.5 12C18.878 12 20 13.122 20 14.5V15H15V14.5ZM20.964 21.146C20.892 21.633 20.467 22 19.975 22H15.031C14.539 22 14.114 21.633 14.042 21.145L13.434 17H21.574L20.964 21.146ZM6 4.5C6 5.328 5.328 6 4.5 6C3.672 6 3 5.328 3 4.5C3 3.672 3.672 3 4.5 3C5.328 3 6 3.672 6 4.5ZM10 4.5C10 5.328 9.328 6 8.5 6C7.672 6 7 5.328 7 4.5C7 3.672 7.672 3 8.5 3C9.328 3 10 3.672 10 4.5ZM21 0H3C1.346 0 0 1.346 0 3V22H10.151C10.132 21.907 9.831 20 9.831 20H2V9H24V3C24 1.346 22.654 0 21 0ZM22 7H2V3C2 2.449 2.449 2 3 2H21C21.551 2 22 2.449 22 3V7Z" fill="black"/>
</g>
<defs>
<clipPath id="clip0_2_64">
<rect width="24" height="24" fill="white"/>
</clipPath>
</defs>
</svg>
