<svg width="64" height="64" viewBox="0 0 64 64" fill="none" xmlns="http://www.w3.org/2000/svg">
<path d="M18.5 29C17.837 29 17.2011 28.7366 16.7322 28.2678C16.2634 27.7989 16 27.163 16 26.5V24C16 23.4696 15.7893 22.9609 15.4142 22.5858C15.0391 22.2107 14.5304 22 14 22C13.4696 22 12.9609 21.7893 12.5858 21.4142C12.2107 21.0391 12 20.5304 12 20V18.118C12.0001 17.782 11.9066 17.4527 11.73 17.1669C11.5533 16.8811 11.3006 16.6501 11 16.5C10.6994 16.3499 10.4467 16.1189 10.27 15.8331C10.0934 15.5473 9.99989 15.218 10 14.882V11.77C9.99981 10.6571 10.3332 9.56974 10.957 8.64818C11.5809 7.72662 12.4667 7.0132 13.5 6.6C13.9428 6.42306 14.3224 6.11744 14.5898 5.7226C14.8572 5.32777 15.0001 4.86185 15 4.385C15 4.0718 15.0617 3.76166 15.1815 3.4723C15.3014 3.18294 15.4771 2.92002 15.6986 2.69855C15.92 2.47708 16.1829 2.3014 16.4723 2.18155C16.7617 2.06169 17.0718 2 17.385 2H24.146C24.6377 2 25.1093 2.19533 25.457 2.54302C25.8047 2.89072 26 3.36229 26 3.854C25.9999 4.19828 25.904 4.53574 25.723 4.82858C25.5419 5.12141 25.2829 5.35806 24.975 5.512L23.025 6.488C22.7171 6.64194 22.4581 6.87859 22.277 7.17142C22.096 7.46426 22.0001 7.80172 22 8.146C22 8.63771 22.1953 9.10928 22.543 9.45698C22.8907 9.80467 23.3623 10 23.854 10H28.377C29.3379 10 30.2594 10.3817 30.9388 11.0612C31.6183 11.7406 32 12.6621 32 13.623V13.694C32.0027 14.3847 31.8123 15.0625 31.4505 15.6508C31.0886 16.2392 30.5696 16.7148 29.952 17.024L25.025 19.488C24.7171 19.6419 24.4581 19.8786 24.277 20.1714C24.096 20.4643 24.0001 20.8017 24 21.146C24 21.6377 24.1953 22.1093 24.543 22.457C24.8907 22.8047 25.3623 23 25.854 23C29.149 23 32.3091 24.309 34.639 26.639L38.186 30.186C39.3952 31.3952 40.3544 32.8308 41.0088 34.4107C41.6632 35.9906 42 37.6839 42 39.394C42 40.0852 42.2746 40.748 42.7633 41.2367C43.252 41.7254 43.9148 42 44.606 42C45.5057 42.0016 46.368 42.3597 47.0042 42.9958C47.6403 43.632 47.9984 44.4943 48 45.394C47.9999 46.1955 47.802 46.9846 47.4238 47.6912C47.0456 48.3979 46.4988 49.0003 45.832 49.445C45.576 49.6157 45.3662 49.8469 45.2211 50.1182C45.0759 50.3895 45 50.6924 45 51C45 51.3076 45.0759 51.6105 45.2211 51.8818C45.3662 52.1531 45.576 52.3843 45.832 52.555L46.787 53.191C47.1601 53.4399 47.4661 53.777 47.6777 54.1724C47.8893 54.5679 48 55.0095 48 55.458C48 55.9282 47.8783 56.3904 47.6466 56.7996C47.4149 57.2088 47.0812 57.5511 46.678 57.793L45.078 58.756C43.7195 59.5708 42.1651 60.0008 40.581 60C40.1206 59.9999 39.6719 59.855 39.2984 59.5858C38.925 59.3166 38.6456 58.9367 38.5 58.5C38.3544 58.0633 38.075 57.6834 37.7016 57.4142C37.3281 57.145 36.8794 57.0001 36.419 57H34.606C33.8045 57.0001 33.0154 57.198 32.3088 57.5762C31.6021 57.9544 30.9997 58.5012 30.555 59.168C30.3843 59.424 30.1531 59.6338 29.8818 59.7789C29.6105 59.9241 29.3076 60 29 60C28.6924 60 28.3895 59.9241 28.1182 59.7789C27.8469 59.6338 27.6157 59.424 27.445 59.168L26.387 57.58C26.2676 57.4013 26.1059 57.2548 25.9163 57.1536C25.7266 57.0525 25.5149 56.9997 25.3 57C24.9552 57 24.6246 57.137 24.3808 57.3808C24.137 57.6246 24 57.9552 24 58.3C24 59.2813 23.6102 60.2224 22.9163 60.9163C22.2224 61.6102 21.2813 62 20.3 62H13.889C13.388 62 12.9075 61.801 12.5533 61.4467C12.199 61.0925 12 60.612 12 60.111C12 59.7742 12.09 59.4436 12.2607 59.1533C12.4315 58.863 12.6767 58.6237 12.971 58.46L20.029 54.54C20.3233 54.3763 20.5685 54.137 20.7393 53.8467C20.91 53.5564 21 53.2258 21 52.889C21 52.388 20.801 51.9075 20.4467 51.5533C20.0925 51.199 19.612 51 19.111 51H17.927C17.4159 51 16.9258 50.797 16.5644 50.4356C16.203 50.0742 16 49.5841 16 49.073C16.0008 48.4814 16.199 47.907 16.5633 47.4409C16.9276 46.9748 17.4371 46.6437 18.011 46.5C18.5796 46.358 19.0844 46.0298 19.4448 45.5677C19.8053 45.1055 20.0007 44.5361 20 43.95C20 43.3317 19.8783 42.7195 19.6417 42.1483C19.4051 41.5771 19.0582 41.0581 18.621 40.621C18.424 40.424 18.2678 40.1902 18.1612 39.9328C18.0547 39.6754 17.9999 39.3996 18 39.121C18.0003 38.5586 18.2238 38.0192 18.6215 37.6215C19.0192 37.2238 19.5586 37.0003 20.121 37C20.6989 37.0001 21.2678 37.1428 21.7774 37.4154C22.2869 37.6881 22.7213 38.0823 23.042 38.563L23.226 38.84C23.464 39.1968 23.7864 39.4894 24.1646 39.6918C24.5428 39.8941 24.9651 40 25.394 40C26.0852 40 26.748 39.7254 27.2367 39.2367C27.7254 38.748 28 38.0852 28 37.394C27.9998 36.7046 27.7753 36.0339 27.3604 35.4834C26.9455 34.9328 26.3627 34.5322 25.7 34.342L22.444 33.412C22.0282 33.2935 21.6623 33.0428 21.4018 32.6978C21.1412 32.3528 21.0002 31.9323 21 31.5C21 30.837 20.7366 30.2011 20.2678 29.7322C19.7989 29.2634 19.163 29 18.5 29Z" fill="#006837"/>
<path d="M46.787 53.191L45.832 52.555C45.576 52.3843 45.3661 52.1531 45.221 51.8818C45.0758 51.6106 44.9999 51.3077 44.9999 51C44.9999 50.6923 45.0758 50.3894 45.221 50.1182C45.3661 49.8469 45.576 49.6157 45.832 49.445C46.4988 49.0003 47.0456 48.3979 47.4238 47.6912C47.802 46.9846 47.9999 46.1955 48 45.394C47.9984 44.4943 47.6403 43.632 47.0042 42.9958C46.368 42.3597 45.5057 42.0016 44.606 42C43.9148 42 43.252 41.7254 42.7633 41.2367C42.2746 40.748 42 40.0852 42 39.394C42 37.6839 41.6632 35.9906 41.0088 34.4107C40.3544 32.8308 39.3952 31.3952 38.186 30.186L34.639 26.639C32.3091 24.309 29.149 23 25.854 23C25.4365 22.9998 25.0312 22.8588 24.7038 22.5996C24.3765 22.3404 24.1462 21.9783 24.0503 21.5719C23.9543 21.1656 23.9984 20.7387 24.1753 20.3605C24.3522 19.9823 24.6516 19.6749 25.025 19.488L27.034 18.488L29.952 17.029C30.4375 16.7854 30.8631 16.4376 31.1987 16.0104C31.5342 15.5833 31.7713 15.0873 31.893 14.558C31.962 14.2751 31.9979 13.9852 32 13.694V13.623C32 12.6621 31.6183 11.7406 30.9388 11.0612C30.2594 10.3817 29.3379 10 28.377 10H23.854C23.4365 9.99985 23.0312 9.85876 22.7038 9.59958C22.3765 9.3404 22.1462 8.9783 22.0503 8.57193C21.9543 8.16556 21.9984 7.7387 22.1753 7.36049C22.3522 6.98227 22.6516 6.67485 23.025 6.488L24.975 5.512C24.996 5.502 25.012 5.484 25.033 5.473C25.3934 5.27583 25.6779 4.96431 25.8417 4.58755C26.0055 4.2108 26.0392 3.79025 25.9376 3.39221C25.8359 2.99417 25.6046 2.64129 25.2803 2.38921C24.9559 2.13714 24.5568 2.0002 24.146 2H17.385C17.0718 2 16.7617 2.06169 16.4723 2.18155C16.1829 2.3014 15.92 2.47708 15.6986 2.69855C15.4771 2.92002 15.3014 3.18294 15.1815 3.4723C15.0617 3.76166 15 4.0718 15 4.385C15 4.432 14.982 4.475 14.979 4.522C14.9556 4.97317 14.8041 5.40832 14.5421 5.77639C14.2802 6.14445 13.9186 6.43017 13.5 6.6C13.481 6.608 13.463 6.62 13.443 6.628C13.1545 7.30547 13.0039 8.03366 13 8.77V11.882C12.9999 12.218 13.0934 12.5473 13.27 12.8331C13.4467 13.1189 13.6994 13.3499 14 13.5C14.3006 13.6501 14.5533 13.8811 14.73 14.1669C14.9066 14.4527 15.0001 14.782 15 15.118V17C15 17.5304 15.2107 18.0391 15.5858 18.4142C15.9609 18.7893 16.4696 19 17 19C17.5304 19 18.0391 19.2107 18.4142 19.5858C18.7893 19.9609 19 20.4696 19 21V23.5C19 24.163 19.2634 24.7989 19.7322 25.2678C20.2011 25.7366 20.837 26 21.5 26C21.8283 26 22.1534 26.0647 22.4567 26.1903C22.76 26.3159 23.0356 26.5001 23.2678 26.7322C23.4999 26.9644 23.6841 27.24 23.8097 27.5433C23.9353 27.8466 24 28.1717 24 28.5C24.0001 28.9321 24.1408 29.3524 24.401 29.6973C24.6612 30.0423 25.0266 30.2932 25.442 30.412L28.698 31.342C29.361 31.5318 29.9443 31.9323 30.3596 32.4829C30.7749 33.0335 30.9997 33.7043 31 34.394C31 35.0852 30.7254 35.748 30.2367 36.2367C29.748 36.7254 29.0852 37 28.394 37C28.249 36.9946 28.1048 36.9765 27.963 36.946C27.9859 37.0943 27.9983 37.244 28 37.394C28.0004 37.9533 27.8207 38.4979 27.4876 38.9472C27.1545 39.3965 26.6856 39.7267 26.1503 39.8889C25.615 40.051 25.0417 40.0366 24.5152 39.8477C23.9888 39.6588 23.5371 39.3055 23.227 38.84L23.042 38.563C22.7084 38.0951 22.2712 37.7105 21.7645 37.4394C21.2579 37.1683 20.6954 37.0179 20.121 37C19.7014 36.9999 19.2913 37.1243 18.9424 37.3573C18.5935 37.5904 18.3216 37.9216 18.161 38.3093C18.0005 38.6969 17.9584 39.1234 18.0403 39.5349C18.1222 39.9464 18.3243 40.3244 18.621 40.621C19.0582 41.0581 19.4051 41.5771 19.6417 42.1483C19.8783 42.7195 20 43.3317 20 43.95V44.012C19.9905 44.3959 19.8966 44.7731 19.725 45.1166C19.5534 45.4602 19.3082 45.7618 19.007 46C19.007 46.026 19 46.051 19 46.077C19.0011 46.5874 19.2045 47.0765 19.5658 47.437C19.9271 47.7975 20.4166 48 20.927 48H22.111C22.5295 48 22.9361 48.1389 23.2671 48.395C23.598 48.651 23.8346 49.0098 23.9396 49.4148C24.0447 49.8199 24.0122 50.2484 23.8474 50.633C23.6826 51.0176 23.3947 51.3367 23.029 51.54L20.979 52.678C20.9901 52.7479 20.9971 52.8183 21 52.889C21 53.2258 20.91 53.5564 20.7393 53.8467C20.5685 54.137 20.3233 54.3763 20.029 54.54L15.021 57.322C15.0714 57.7825 15.2898 58.2082 15.6345 58.5178C15.9791 58.8274 16.4257 58.9991 16.889 59H23.3C23.5125 58.997 23.7243 58.9756 23.933 58.936C23.9738 58.7264 23.9962 58.5135 24 58.3C23.9982 58.0332 24.0789 57.7724 24.2311 57.5532C24.3832 57.3341 24.5994 57.1673 24.85 57.0758C25.1007 56.9843 25.3734 56.9724 25.631 57.0419C25.8886 57.1114 26.1184 57.2588 26.289 57.464C26.7493 56.8362 26.9983 56.0785 27 55.3C26.9978 55.0193 27.0866 54.7455 27.253 54.5194C27.4194 54.2933 27.6545 54.1272 27.9231 54.0458C28.1918 53.9644 28.4795 53.9722 28.7434 54.068C29.0073 54.1637 29.233 54.3423 29.387 54.577L30.445 56.165C30.6157 56.421 30.8469 56.6308 31.1182 56.776C31.3894 56.9212 31.6923 56.9971 32 56.9971C32.3077 56.9971 32.6106 56.9212 32.8818 56.776C33.1531 56.6308 33.3843 56.421 33.555 56.165C34 55.4987 34.6026 54.9526 35.3092 54.5749C36.0159 54.1973 36.8048 53.9998 37.606 54H39.419C39.8794 54.0001 40.3281 54.145 40.7016 54.4142C41.075 54.6834 41.3544 55.0633 41.5 55.5C41.6456 55.9367 41.925 56.3166 42.2984 56.5858C42.6719 56.855 43.1206 56.9999 43.581 57C45.1171 56.9975 46.6252 56.5894 47.953 55.817C47.9767 55.6985 47.9924 55.5786 48 55.458C48 55.0095 47.8893 54.5679 47.6777 54.1724C47.4661 53.777 47.1601 53.4399 46.787 53.191Z" fill="#009245"/>
<path d="M45 62C54.3888 62 62 54.3888 62 45C62 35.6112 54.3888 28 45 28C35.6112 28 28 35.6112 28 45C28 54.3888 35.6112 62 45 62Z" fill="#063990"/>
<path d="M45 28C41.4697 27.9984 38.0274 29.102 35.156 31.156C32.8229 34.4273 31.7252 38.4199 32.058 42.4241C32.3909 46.4284 34.1327 50.185 36.9739 53.0262C39.8151 55.8674 43.5716 57.6092 47.5759 57.942C51.5802 58.2749 55.5727 57.1772 58.844 54.844C60.6561 52.3032 61.733 49.3122 61.9565 46.1994C62.1801 43.0866 61.5415 39.9724 60.1111 37.1987C58.6807 34.4251 56.5136 32.0992 53.8479 30.4764C51.1822 28.8537 48.1208 27.9969 45 28Z" fill="#0C53A8"/>
<path d="M62 45C61.9954 43.9937 61.9017 42.9898 61.72 42H51L58.416 34.584C57.5444 33.4633 56.5367 32.4556 55.416 31.584L48 39V28.28C46.0174 27.9067 43.9826 27.9067 42 28.28V39L34.584 31.584C33.4633 32.4556 32.4556 33.4633 31.584 34.584L39 42H28.28C27.9067 43.9826 27.9067 46.0174 28.28 48H39L31.584 55.416C32.4556 56.5367 33.4633 57.5444 34.584 58.416L42 51V61.72C43.9826 62.0934 46.0174 62.0934 48 61.72V51L55.416 58.416C56.5367 57.5444 57.5444 56.5367 58.416 55.416L51 48H61.72C61.9017 47.0102 61.9954 46.0063 62 45Z" fill="#E6E6E6"/>
<path d="M58.416 34.584C57.5445 33.4634 56.5367 32.4556 55.416 31.584L48 39V28.28C46.0172 27.9093 43.9829 27.9093 42 28.28V39L34.76 31.76C33.9347 33.0194 33.2806 34.3831 32.815 35.815L39 42H32.05C32.1674 44.0733 32.6657 46.1073 33.5201 48H39L35.584 51.416C36.4556 52.5367 37.4634 53.5444 38.584 54.416L42 51V56.48C43.8928 57.3343 45.9267 57.8327 48 57.95V51L54.1851 57.185C55.617 56.7194 56.9806 56.0653 58.2401 55.24L51 48H61.724C62.0947 46.0172 62.0947 43.9828 61.724 42H51L58.416 34.584Z" fill="white"/>
<path d="M47 42.707L56.867 32.84C56.6268 32.6083 56.38 32.3836 56.127 32.166L47 41.293V28.128C45.6721 27.9573 44.3279 27.9573 43 28.128V43H42.707L32.84 33.133C32.607 33.372 32.385 33.621 32.166 33.873L41.293 43H28.128C27.9573 44.3279 27.9573 45.6721 28.128 47H43V47.293L33.133 57.16C33.372 57.393 33.621 57.615 33.873 57.834L43 48.707V61.872C44.3279 62.0427 45.6721 62.0427 47 61.872V47H47.293L57.16 56.867C57.393 56.628 57.615 56.379 57.834 56.127L48.707 47H61.872C62.0427 45.6721 62.0427 44.3279 61.872 43H47V42.707Z" fill="#C1272D"/>
<path d="M3.743 34C4.10947 34.0009 4.46688 33.8861 4.76438 33.6721C5.06187 33.4581 5.2843 33.1557 5.4 32.808C5.57547 32.282 5.91183 31.8244 6.36152 31.5C6.81121 31.1755 7.35149 31.0006 7.906 31C8.22459 31 8.5351 31.1003 8.79354 31.2866C9.05198 31.4729 9.24526 31.7358 9.346 32.038C9.53639 32.6093 9.90173 33.1063 10.3903 33.4584C10.8788 33.8106 11.4658 34 12.068 34C12.5804 34 13.0718 33.7965 13.4341 33.4341C13.7965 33.0718 14 32.5804 14 32.068C13.9998 30.7079 13.6831 29.3666 13.075 28.15C12.7522 27.5046 12.2562 26.9617 11.6425 26.582C11.0289 26.2023 10.3217 26.0008 9.6 26H6.3C5.45038 25.9999 4.61977 26.2515 3.913 26.723C3.32444 27.1158 2.84191 27.6478 2.5082 28.2717C2.1745 28.8957 1.99994 29.5924 2 30.3V32.254C1.99974 32.4831 2.04462 32.71 2.13209 32.9218C2.21955 33.1335 2.34788 33.326 2.50975 33.4881C2.67161 33.6503 2.86384 33.7789 3.07545 33.8668C3.28705 33.9546 3.51389 33.9999 3.743 34ZM3.97 13H4.03C4.55248 13 5.05355 12.7924 5.423 12.423C5.79245 12.0536 6 11.5525 6 11.03C6.0001 9.09021 6.77057 7.22986 8.142 5.858L8.379 5.621C8.57598 5.42403 8.73222 5.19018 8.83877 4.9328C8.94533 4.67542 9.00011 4.39956 9 4.121C8.99974 3.55856 8.77619 3.01923 8.37848 2.62152C7.98077 2.22381 7.44144 2.00027 6.879 2C6.29591 1.99961 5.72074 2.13495 5.199 2.3953C4.67727 2.65564 4.22329 3.03386 3.873 3.5C2.65655 5.12146 1.99928 7.09396 2 9.121V11.03C2 11.5525 2.20755 12.0536 2.577 12.423C2.94645 12.7924 3.44752 13 3.97 13Z" fill="#006837"/>
<path d="M47.0001 42.707L56.8521 32.825C56.6121 32.593 56.3631 32.371 56.1111 32.152L47.0001 41.293V28.128C46.3365 28.0464 45.6686 28.0036 45.0001 28C44.3314 28.0041 43.6635 28.0479 43.0001 28.131V43H42.7071L33.5761 33.9C33.4261 34.225 33.2841 34.554 33.1531 34.89L41.2931 43H32.1281C32.2903 44.3685 32.6201 45.7119 33.1101 47H43.0001V47.293L37.1421 53.169C37.3811 53.402 37.6301 53.623 37.8821 53.842L43.0001 48.707V56.89C44.2881 57.38 45.6315 57.7098 47.0001 57.872V47H47.2931L56.5421 56.221C56.8541 56.066 57.1581 55.896 57.4581 55.721L48.7071 47H61.8691C61.9522 46.3365 61.9959 45.6687 62.0001 45C61.9964 44.3314 61.9537 43.6636 61.8721 43H47.0001V42.707Z" fill="#DD1F2D"/>
<path d="M3.744 35C4.31949 35 4.88035 34.8187 5.34703 34.482C5.81372 34.1453 6.16253 33.6701 6.344 33.124C6.453 32.7961 6.66264 32.511 6.94309 32.3092C7.22353 32.1074 7.56049 31.9992 7.906 32C8.01466 31.9999 8.12058 32.0341 8.20872 32.0976C8.29686 32.1612 8.36274 32.2509 8.397 32.354C8.65321 33.1249 9.14578 33.7954 9.80478 34.2704C10.4638 34.7454 11.2557 35.0007 12.068 35C12.8454 34.9992 13.5907 34.69 14.1404 34.1404C14.69 33.5907 14.9992 32.8454 15 32.068C14.9986 30.552 14.6461 29.0569 13.97 27.7C13.566 26.8871 12.9427 26.2034 12.1704 25.7262C11.3981 25.2491 10.5078 24.9975 9.6 25H6.3C4.89435 25 3.54628 25.5584 2.55233 26.5523C1.55839 27.5463 1 28.8944 1 30.3V32.254C1 32.9819 1.28904 33.6801 1.80358 34.195C2.31812 34.7099 3.01606 34.9995 3.744 35ZM3 30.3C3 29.4248 3.34768 28.5854 3.96655 27.9665C4.58542 27.3477 5.42479 27 6.3 27H9.6C10.1374 26.9984 10.6644 27.1474 11.1214 27.4302C11.5783 27.713 11.9468 28.1183 12.185 28.6C12.7206 29.6777 12.9995 30.8646 13 32.068C12.9997 32.3151 12.9015 32.552 12.7267 32.7267C12.552 32.9015 12.3151 32.9997 12.068 33C11.6765 32.9992 11.2952 32.8754 10.9779 32.6461C10.6607 32.4168 10.4235 32.0935 10.3 31.722C10.133 31.2195 9.81174 30.7825 9.38187 30.4733C8.95201 30.1641 8.43552 29.9985 7.906 30C7.14109 29.9992 6.39537 30.2394 5.77479 30.6866C5.1542 31.1338 4.69031 31.7652 4.449 32.491C4.39386 32.6591 4.28052 32.8021 4.12938 32.8941C3.97825 32.9861 3.79923 33.0212 3.62454 32.993C3.44986 32.9648 3.29098 32.8751 3.17649 32.7402C3.06199 32.6053 2.99941 32.4339 3 32.257V30.3ZM3.97 14H4.03C4.81754 13.9989 5.57251 13.6856 6.12929 13.1286C6.68607 12.5716 6.99921 11.8165 7 11.029C6.99785 10.1994 7.16025 9.37763 7.47781 8.61121C7.79536 7.8448 8.26175 7.14897 8.85 6.564L9.086 6.328C9.52253 5.89152 9.81981 5.33539 9.94026 4.72994C10.0607 4.1245 9.99889 3.49693 9.76265 2.92661C9.52641 2.35629 9.12635 1.86884 8.61306 1.52591C8.09977 1.18297 7.49631 0.999953 6.879 1C6.14087 1.00154 5.4131 1.17386 4.75265 1.50348C4.0922 1.8331 3.51698 2.31107 3.072 2.9C1.73084 4.69717 1.00429 6.87857 1 9.121V11.029C1.00079 11.8165 1.31393 12.5716 1.87071 13.1286C2.42749 13.6856 3.18246 13.9989 3.97 14ZM3 9.121C3.00301 7.3111 3.58933 5.55037 4.672 4.1C4.92994 3.75866 5.26343 3.48171 5.64634 3.29086C6.02925 3.10002 6.45117 3.00046 6.879 3C7.10081 2.99987 7.31767 3.06554 7.50214 3.18871C7.68661 3.31188 7.8304 3.487 7.9153 3.69192C8.0002 3.89684 8.0224 4.12234 7.97909 4.33988C7.93578 4.55742 7.82891 4.75722 7.672 4.914L7.436 5.15C6.6614 5.92018 6.04725 6.83636 5.62911 7.84549C5.21097 8.85462 4.99714 9.93667 5 11.029C4.99974 11.2863 4.89749 11.5329 4.71566 11.715C4.53384 11.897 4.28727 11.9995 4.03 12H3.97C3.71273 11.9995 3.46616 11.897 3.28434 11.715C3.10251 11.5329 3.00026 11.2863 3 11.029V9.121Z" fill="#1B1717"/>
<path d="M45 27C42.553 26.9989 40.1317 27.4999 37.886 28.472L35.346 25.932C34.1026 24.6814 32.6233 23.6899 30.994 23.0149C29.3647 22.34 27.6176 21.995 25.854 22C25.6616 22.0001 25.4748 21.9352 25.3238 21.8158C25.1729 21.6964 25.0667 21.5295 25.0225 21.3422C24.9783 21.1549 24.9986 20.9582 25.0802 20.7839C25.1618 20.6096 25.2999 20.468 25.472 20.382L30.4 17.919C31.194 17.5194 31.8591 16.9039 32.319 16.1433C32.7789 15.3827 33.015 14.5077 33 13.619C32.9977 12.394 32.5097 11.2199 31.6431 10.3541C30.7765 9.48826 29.602 9.00132 28.377 9H23.854C23.6616 9.00009 23.4748 8.93518 23.3238 8.81579C23.1729 8.6964 23.0667 8.52953 23.0225 8.34223C22.9783 8.15493 22.9986 7.95819 23.0802 7.7839C23.1618 7.60961 23.2999 7.46799 23.472 7.382L25.423 6.407C25.9983 6.11954 26.4596 5.64622 26.7322 5.06377C27.0048 4.48132 27.0727 3.82387 26.9249 3.198C26.7771 2.57213 26.4222 2.01453 25.9178 1.61558C25.4135 1.21663 24.7891 0.999716 24.146 1H17.385C16.4876 1.00106 15.6272 1.35803 14.9926 1.99261C14.3581 2.62719 14.0011 3.48757 14 4.385C14.0008 4.66204 13.9182 4.93291 13.7628 5.16229C13.6074 5.39167 13.3866 5.56894 13.129 5.671C11.9077 6.15507 10.8605 6.99586 10.124 8.08377C9.38749 9.17167 8.99582 10.4562 9.00003 11.77V14.882C8.99798 15.4049 9.14236 15.9178 9.41683 16.3628C9.6913 16.8079 10.0849 17.1671 10.553 17.4C10.6879 17.4663 10.8014 17.5693 10.8805 17.6972C10.9596 17.8251 11.001 17.9727 11 18.123V20C11 20.7956 11.3161 21.5587 11.8787 22.1213C12.4413 22.6839 13.2044 23 14 23C14.2653 23 14.5196 23.1054 14.7071 23.2929C14.8947 23.4804 15 23.7348 15 24V26.5C15 27.4283 15.3688 28.3185 16.0252 28.9749C16.6815 29.6313 17.5718 30 18.5 30C18.8979 30 19.2794 30.158 19.5607 30.4393C19.842 30.7206 20 31.1022 20 31.5C20.0018 32.1491 20.2141 32.7801 20.605 33.2983C20.9959 33.8165 21.5444 34.194 22.168 34.374L25.423 35.304C25.8776 35.4352 26.2772 35.7105 26.5616 36.0886C26.8461 36.4666 26.9999 36.9269 27 37.4C27.0003 37.7448 26.8894 38.0805 26.684 38.3574C26.4785 38.6343 26.1894 38.8377 25.8593 38.9374C25.5292 39.0372 25.1758 39.028 24.8514 38.9112C24.527 38.7944 24.2488 38.5762 24.058 38.289L23.874 38.014C23.4634 37.3945 22.9058 36.8863 22.2509 36.5349C21.596 36.1834 20.8643 35.9997 20.121 36C19.5037 36 18.9003 36.183 18.387 36.5259C17.8737 36.8688 17.4736 37.3563 17.2374 37.9266C17.0011 38.4969 16.9393 39.1245 17.0598 39.7299C17.1802 40.3354 17.4775 40.8915 17.914 41.328C18.2594 41.6716 18.5332 42.0802 18.7196 42.5303C18.906 42.9803 19.0013 43.4629 19 43.95C19.0004 44.3127 18.8793 44.6651 18.656 44.951C18.4327 45.2368 18.1201 45.4396 17.768 45.527C16.9771 45.7243 16.2749 46.1806 15.7733 46.8232C15.2716 47.4658 14.9995 48.2578 15 49.073C15.0008 49.849 15.3095 50.5931 15.8582 51.1418C16.407 51.6906 17.151 51.9992 17.927 52H19.111C19.3079 52.0002 19.4991 52.0658 19.6547 52.1863C19.8103 52.3069 19.9214 52.4758 19.9707 52.6663C20.02 52.8569 20.0047 53.0585 19.9271 53.2394C19.8495 53.4203 19.7141 53.5704 19.542 53.666L12.486 57.586C11.9268 57.8969 11.4865 58.3848 11.2345 58.9729C10.9824 59.5611 10.9327 60.2163 11.0932 60.8357C11.2537 61.4552 11.6154 62.0038 12.1214 62.3955C12.6274 62.7872 13.2491 62.9998 13.889 63H20.3C21.5465 63 22.742 62.5048 23.6234 61.6234C24.5049 60.742 25 59.5465 25 58.3C25.0067 58.2385 25.0313 58.1804 25.0707 58.1328C25.1102 58.0852 25.1628 58.0503 25.2219 58.0324C25.2811 58.0145 25.3443 58.0144 25.4035 58.0321C25.4627 58.0498 25.5154 58.0845 25.555 58.132L26.613 59.72C26.875 60.1129 27.23 60.4351 27.6464 60.6579C28.0628 60.8807 28.5278 60.9973 29 60.9973C29.4723 60.9973 29.9373 60.8807 30.3537 60.6579C30.7701 60.4351 31.125 60.1129 31.387 59.72C31.7852 59.1289 32.3389 58.6593 32.987 58.363C35.1571 60.3145 37.7694 61.7087 40.5985 62.4253C43.4277 63.1419 46.3887 63.1594 49.2261 62.4762C52.0635 61.793 54.6921 60.4296 56.885 58.5038C59.0779 56.578 60.7692 54.1475 61.8131 51.4221C62.8571 48.6967 63.2222 45.7582 62.8769 42.8602C62.5317 39.9622 61.4865 37.1917 59.8316 34.7878C58.1767 32.3839 55.9617 30.4188 53.3777 29.062C50.7938 27.7052 47.9185 26.9975 45 27ZM57.063 34.522L50.586 41H49V39.414L55.478 32.937C56.0427 33.4277 56.5723 33.9573 57.063 34.522ZM58.3 36.116C59.2946 37.6098 60.0293 39.2611 60.473 41H53.414L58.3 36.116ZM49 29.527C50.7389 29.9707 52.3902 30.7054 53.884 31.7L49 36.586V29.527ZM29.527 49H36.586L31.7 53.883C30.7052 52.3897 29.9705 50.7387 29.527 49ZM31.7 36.116L36.586 41H29.527C29.9708 39.2611 30.7055 37.6098 31.7 36.116ZM39.414 41L32.937 34.522C33.4283 33.9572 33.9583 33.4273 34.523 32.936L41 39.414V41H39.414ZM41 36.586L36.117 31.7C37.6104 30.7052 39.2614 29.9705 41 29.527V36.586ZM25.972 33.38L22.717 32.45C22.5108 32.3905 22.3295 32.2658 22.2002 32.0945C22.071 31.9232 22.0007 31.7146 22 31.5C22 30.5717 21.6313 29.6815 20.9749 29.0251C20.3185 28.3687 19.4283 28 18.5 28C18.1022 28 17.7207 27.842 17.4394 27.5607C17.1581 27.2794 17 26.8978 17 26.5V24C17 23.2044 16.684 22.4413 16.1214 21.8787C15.5587 21.3161 14.7957 21 14 21C13.7348 21 13.4805 20.8946 13.2929 20.7071C13.1054 20.5196 13 20.2652 13 20V18.118C13.0012 17.596 12.8563 17.0841 12.5819 16.64C12.3075 16.196 11.9144 15.8375 11.447 15.605C11.3121 15.5387 11.1986 15.4357 11.1196 15.3078C11.0405 15.1799 10.9991 15.0323 11 14.882V11.77C10.9971 10.8562 11.2695 9.96274 11.7818 9.20606C12.2941 8.44938 13.0225 7.86461 13.872 7.528C14.5015 7.2786 15.0412 6.84534 15.4208 6.2847C15.8004 5.72406 16.0022 5.06205 16 4.385C16.0006 4.01784 16.1467 3.66586 16.4063 3.40624C16.6659 3.14662 17.0179 3.00053 17.385 3H24.146C24.3385 2.99991 24.5253 3.06482 24.6762 3.18421C24.8272 3.30361 24.9334 3.47047 24.9776 3.65777C25.0218 3.84507 25.0015 4.04181 24.9199 4.2161C24.8383 4.39039 24.7002 4.53201 24.528 4.618L22.577 5.593C22.0018 5.88046 21.5405 6.35378 21.2679 6.93623C20.9953 7.51868 20.9274 8.17613 21.0752 8.802C21.223 9.42787 21.5779 9.98547 22.0822 10.3844C22.5866 10.7834 23.2109 11.0003 23.854 11H28.377C28.7268 11.0024 29.0726 11.0743 29.3944 11.2115C29.7162 11.3486 30.0075 11.5483 30.2515 11.7989C30.4955 12.0495 30.6873 12.346 30.8158 12.6714C30.9443 12.9967 31.0069 13.3443 31 13.694C31.0027 14.1997 30.8636 14.6959 30.5984 15.1265C30.3333 15.5571 29.9528 15.9047 29.5 16.13L24.572 18.593C23.9964 18.8806 23.5348 19.3544 23.2623 19.9374C22.9898 20.5203 22.9223 21.1783 23.0707 21.8044C23.2192 22.4306 23.5749 22.9882 24.0802 23.3868C24.5854 23.7853 25.2105 24.0014 25.854 24C27.3549 23.9958 28.8416 24.2894 30.2282 24.8638C31.6148 25.4381 32.8737 26.2818 33.932 27.346L36.013 29.428C32.9915 31.1795 30.5411 33.7674 28.957 36.88C28.8552 36.069 28.5183 35.3055 27.9879 34.6836C27.4575 34.0617 26.7568 33.6086 25.972 33.38ZM29.723 58.613C29.6393 58.7259 29.5303 58.8177 29.4048 58.8809C29.2792 58.9441 29.1406 58.977 29 58.977C28.8595 58.977 28.7209 58.9441 28.5953 58.8809C28.4697 58.8177 28.3607 58.7259 28.277 58.613L27.219 57.025C26.9461 56.6119 26.5472 56.298 26.0816 56.1297C25.616 55.9615 25.1086 55.948 24.6347 56.0912C24.1608 56.2344 23.7457 56.5267 23.4512 56.9246C23.1567 57.3226 22.9985 57.8049 23 58.3C23 59.0161 22.7156 59.7028 22.2092 60.2092C21.7029 60.7155 21.0161 61 20.3 61H13.889C13.6922 60.9998 13.501 60.9342 13.3454 60.8137C13.1898 60.6931 13.0786 60.5242 13.0293 60.3337C12.98 60.1431 12.9954 59.9415 13.073 59.7606C13.1505 59.5797 13.286 59.4296 13.458 59.334L20.514 55.414C21.0733 55.1031 21.5135 54.6152 21.7656 54.0271C22.0177 53.4389 22.0674 52.7837 21.9068 52.1643C21.7463 51.5448 21.3847 50.9962 20.8787 50.6045C20.3727 50.2128 19.7509 50.0002 19.111 50H17.927C17.6813 49.9997 17.4456 49.902 17.2718 49.7282C17.098 49.5544 17.0003 49.3188 17 49.073C16.9997 48.7039 17.1229 48.3453 17.35 48.0542C17.577 47.7632 17.8949 47.5565 18.253 47.467C19.0381 47.2721 19.7352 46.8198 20.2332 46.1823C20.7311 45.5448 21.0011 44.7589 21 43.95C21.002 43.2001 20.8552 42.4573 20.5682 41.7646C20.2812 41.0718 19.8597 40.4428 19.328 39.914C19.1711 39.7572 19.0643 39.5574 19.0209 39.3399C18.9776 39.1223 18.9998 38.8968 19.0847 38.6919C19.1696 38.487 19.3134 38.3119 19.4979 38.1887C19.6824 38.0655 19.8992 37.9999 20.121 38C20.5345 37.9996 20.9417 38.1016 21.3062 38.2968C21.6707 38.4921 21.9812 38.7746 22.21 39.119L22.395 39.395C22.6729 39.816 23.0367 40.1734 23.4626 40.4437C23.8884 40.714 24.3667 40.8911 24.8659 40.9634C25.3651 41.0356 25.8739 41.0014 26.359 40.8629C26.844 40.7245 27.2942 40.4849 27.68 40.16C26.8573 43.0484 26.7787 46.0981 27.4517 49.025C28.1247 51.9519 29.5273 54.661 31.529 56.9C30.8113 57.335 30.1953 57.9192 29.723 58.613ZM32.936 55.477L39.414 49H41V50.586L34.523 57.064C33.9577 56.5726 33.4274 56.0424 32.936 55.477ZM41 60.477C39.2611 60.0323 37.6101 59.2962 36.117 58.3L41 53.414V60.477ZM43 60.865V48C43 47.7348 42.8947 47.4804 42.7071 47.2929C42.5196 47.1054 42.2653 47 42 47H29.139C28.9537 45.6731 28.9537 44.3269 29.139 43H42C42.2653 43 42.5196 42.8946 42.7071 42.7071C42.8947 42.5196 43 42.2652 43 42V29.139C44.3269 28.9537 45.6731 28.9537 47 29.139V42C47 42.2652 47.1054 42.5196 47.2929 42.7071C47.4805 42.8946 47.7348 43 48 43H60.861C61.0464 44.3269 61.0464 45.6731 60.861 47H48C47.7348 47 47.4805 47.1054 47.2929 47.2929C47.1054 47.4804 47 47.7348 47 48V60.861C45.6731 61.0463 44.3269 61.0463 43 60.861V60.865ZM60.473 49C60.0295 50.7387 59.2948 52.3897 58.3 53.883L53.414 49H60.473ZM49 53.414L53.884 58.3C52.3902 59.2946 50.7389 60.0293 49 60.473V53.414ZM55.478 57.063L49 50.586V49H50.586L57.064 55.477C56.5728 56.0418 56.0428 56.5717 55.478 57.063Z" fill="#1B1717"/>
</svg>
