<svg width="64" height="64" viewBox="0 0 64 64" fill="none" xmlns="http://www.w3.org/2000/svg">
<path d="M3.744 35C4.31949 35 4.88035 34.8187 5.34703 34.482C5.81372 34.1453 6.16253 33.6701 6.344 33.124C6.453 32.7961 6.66264 32.511 6.94309 32.3092C7.22353 32.1074 7.56049 31.9992 7.906 32C8.01466 31.9999 8.12058 32.0341 8.20872 32.0976C8.29686 32.1612 8.36274 32.2509 8.397 32.354C8.65321 33.1249 9.14578 33.7954 9.80478 34.2704C10.4638 34.7454 11.2557 35.0007 12.068 35C12.8454 34.9992 13.5907 34.69 14.1404 34.1404C14.69 33.5907 14.9992 32.8454 15 32.068C14.9986 30.552 14.6461 29.0569 13.97 27.7C13.566 26.8871 12.9427 26.2034 12.1704 25.7262C11.3981 25.2491 10.5078 24.9975 9.6 25H6.3C4.89435 25 3.54628 25.5584 2.55233 26.5523C1.55839 27.5463 1 28.8944 1 30.3V32.254C1 32.9819 1.28904 33.6801 1.80358 34.195C2.31812 34.7099 3.01606 34.9995 3.744 35ZM3 30.3C3 29.4248 3.34768 28.5854 3.96655 27.9665C4.58542 27.3477 5.42479 27 6.3 27H9.6C10.1374 26.9984 10.6644 27.1474 11.1214 27.4302C11.5783 27.713 11.9468 28.1183 12.185 28.6C12.7206 29.6777 12.9995 30.8646 13 32.068C12.9997 32.3151 12.9015 32.552 12.7267 32.7267C12.552 32.9015 12.3151 32.9997 12.068 33C11.6765 32.9992 11.2952 32.8754 10.9779 32.6461C10.6607 32.4168 10.4235 32.0935 10.3 31.722C10.133 31.2195 9.81174 30.7825 9.38187 30.4733C8.95201 30.1641 8.43552 29.9985 7.906 30C7.14109 29.9992 6.39537 30.2394 5.77479 30.6866C5.1542 31.1338 4.69031 31.7652 4.449 32.491C4.39386 32.6591 4.28052 32.8021 4.12938 32.8941C3.97825 32.9861 3.79923 33.0212 3.62454 32.993C3.44986 32.9648 3.29098 32.8751 3.17649 32.7402C3.06199 32.6053 2.99941 32.4339 3 32.257V30.3ZM3.97 14H4.03C4.81754 13.9989 5.57251 13.6856 6.12929 13.1286C6.68607 12.5716 6.99921 11.8165 7 11.029C6.99785 10.1994 7.16025 9.37763 7.47781 8.61121C7.79536 7.8448 8.26175 7.14897 8.85 6.564L9.086 6.328C9.52253 5.89152 9.81981 5.33539 9.94026 4.72994C10.0607 4.1245 9.99889 3.49693 9.76265 2.92661C9.52641 2.35629 9.12635 1.86884 8.61306 1.52591C8.09977 1.18297 7.49631 0.999953 6.879 1C6.14087 1.00154 5.4131 1.17386 4.75265 1.50348C4.0922 1.8331 3.51698 2.31107 3.072 2.9C1.73084 4.69717 1.00429 6.87857 1 9.121V11.029C1.00079 11.8165 1.31393 12.5716 1.87071 13.1286C2.42749 13.6856 3.18246 13.9989 3.97 14ZM3 9.121C3.00301 7.3111 3.58933 5.55037 4.672 4.1C4.92994 3.75866 5.26343 3.48171 5.64634 3.29086C6.02925 3.10002 6.45117 3.00046 6.879 3C7.10081 2.99987 7.31767 3.06554 7.50214 3.18871C7.68661 3.31188 7.8304 3.487 7.9153 3.69192C8.0002 3.89684 8.0224 4.12234 7.97909 4.33988C7.93578 4.55742 7.82891 4.75722 7.672 4.914L7.436 5.15C6.6614 5.92018 6.04725 6.83636 5.62911 7.84549C5.21097 8.85462 4.99714 9.93667 5 11.029C4.99974 11.2863 4.89749 11.5329 4.71566 11.715C4.53384 11.897 4.28727 11.9995 4.03 12H3.97C3.71273 11.9995 3.46616 11.897 3.28434 11.715C3.10251 11.5329 3.00026 11.2863 3 11.029V9.121Z" fill="#1B1717"/>
<path d="M45 27C42.553 26.9989 40.1317 27.4999 37.886 28.472L35.346 25.932C34.1026 24.6814 32.6233 23.6899 30.994 23.0149C29.3647 22.34 27.6176 21.995 25.854 22C25.6616 22.0001 25.4748 21.9352 25.3238 21.8158C25.1729 21.6964 25.0667 21.5295 25.0225 21.3422C24.9783 21.1549 24.9986 20.9582 25.0802 20.7839C25.1618 20.6096 25.2999 20.468 25.472 20.382L30.4 17.919C31.194 17.5194 31.8591 16.9039 32.319 16.1433C32.7789 15.3827 33.015 14.5077 33 13.619C32.9977 12.394 32.5097 11.2199 31.6431 10.3541C30.7765 9.48826 29.602 9.00132 28.377 9H23.854C23.6616 9.00009 23.4748 8.93518 23.3238 8.81579C23.1729 8.6964 23.0667 8.52953 23.0225 8.34223C22.9783 8.15493 22.9986 7.95819 23.0802 7.7839C23.1618 7.60961 23.2999 7.46799 23.472 7.382L25.423 6.407C25.9983 6.11954 26.4596 5.64622 26.7322 5.06377C27.0048 4.48132 27.0727 3.82387 26.9249 3.198C26.7771 2.57213 26.4222 2.01453 25.9178 1.61558C25.4135 1.21663 24.7891 0.999716 24.146 1H17.385C16.4876 1.00106 15.6272 1.35803 14.9926 1.99261C14.3581 2.62719 14.0011 3.48757 14 4.385C14.0008 4.66204 13.9182 4.93291 13.7628 5.16229C13.6074 5.39167 13.3866 5.56894 13.129 5.671C11.9077 6.15507 10.8605 6.99586 10.124 8.08377C9.38749 9.17167 8.99582 10.4562 9.00003 11.77V14.882C8.99798 15.4049 9.14236 15.9178 9.41683 16.3628C9.6913 16.8079 10.0849 17.1671 10.553 17.4C10.6879 17.4663 10.8014 17.5693 10.8805 17.6972C10.9596 17.8251 11.001 17.9727 11 18.123V20C11 20.7956 11.3161 21.5587 11.8787 22.1213C12.4413 22.6839 13.2044 23 14 23C14.2653 23 14.5196 23.1054 14.7071 23.2929C14.8947 23.4804 15 23.7348 15 24V26.5C15 27.4283 15.3688 28.3185 16.0252 28.9749C16.6815 29.6313 17.5718 30 18.5 30C18.8979 30 19.2794 30.158 19.5607 30.4393C19.842 30.7206 20 31.1022 20 31.5C20.0018 32.1491 20.2141 32.7801 20.605 33.2983C20.9959 33.8165 21.5444 34.194 22.168 34.374L25.423 35.304C25.8776 35.4352 26.2772 35.7105 26.5616 36.0886C26.8461 36.4666 26.9999 36.9269 27 37.4C27.0003 37.7448 26.8894 38.0805 26.684 38.3574C26.4785 38.6343 26.1894 38.8377 25.8593 38.9374C25.5292 39.0372 25.1758 39.028 24.8514 38.9112C24.527 38.7944 24.2488 38.5762 24.058 38.289L23.874 38.014C23.4634 37.3945 22.9058 36.8863 22.2509 36.5349C21.596 36.1834 20.8643 35.9997 20.121 36C19.5037 36 18.9003 36.183 18.387 36.5259C17.8737 36.8688 17.4736 37.3563 17.2374 37.9266C17.0011 38.4969 16.9393 39.1245 17.0598 39.7299C17.1802 40.3354 17.4775 40.8915 17.914 41.328C18.2594 41.6716 18.5332 42.0802 18.7196 42.5303C18.906 42.9803 19.0013 43.4629 19 43.95C19.0004 44.3127 18.8793 44.6651 18.656 44.951C18.4327 45.2368 18.1201 45.4396 17.768 45.527C16.9771 45.7243 16.2749 46.1806 15.7733 46.8232C15.2716 47.4658 14.9995 48.2578 15 49.073C15.0008 49.849 15.3095 50.5931 15.8582 51.1418C16.407 51.6906 17.151 51.9992 17.927 52H19.111C19.3079 52.0002 19.4991 52.0658 19.6547 52.1863C19.8103 52.3069 19.9214 52.4758 19.9707 52.6663C20.02 52.8569 20.0047 53.0585 19.9271 53.2394C19.8495 53.4203 19.7141 53.5704 19.542 53.666L12.486 57.586C11.9268 57.8969 11.4865 58.3848 11.2345 58.9729C10.9824 59.5611 10.9327 60.2163 11.0932 60.8357C11.2537 61.4552 11.6154 62.0038 12.1214 62.3955C12.6274 62.7872 13.2491 62.9998 13.889 63H20.3C21.5465 63 22.742 62.5048 23.6234 61.6234C24.5049 60.742 25 59.5465 25 58.3C25.0067 58.2385 25.0313 58.1804 25.0707 58.1328C25.1102 58.0852 25.1628 58.0503 25.2219 58.0324C25.2811 58.0145 25.3443 58.0144 25.4035 58.0321C25.4627 58.0498 25.5154 58.0845 25.555 58.132L26.613 59.72C26.875 60.1129 27.23 60.4351 27.6464 60.6579C28.0628 60.8807 28.5278 60.9973 29 60.9973C29.4723 60.9973 29.9373 60.8807 30.3537 60.6579C30.7701 60.4351 31.125 60.1129 31.387 59.72C31.7852 59.1289 32.3389 58.6593 32.987 58.363C35.1571 60.3145 37.7694 61.7087 40.5985 62.4253C43.4277 63.1419 46.3887 63.1594 49.2261 62.4762C52.0635 61.793 54.6921 60.4296 56.885 58.5038C59.0779 56.578 60.7692 54.1475 61.8131 51.4221C62.8571 48.6967 63.2222 45.7582 62.8769 42.8602C62.5317 39.9622 61.4865 37.1917 59.8316 34.7878C58.1767 32.3839 55.9617 30.4188 53.3777 29.062C50.7938 27.7052 47.9185 26.9975 45 27ZM57.063 34.522L50.586 41H49V39.414L55.478 32.937C56.0427 33.4277 56.5723 33.9573 57.063 34.522ZM58.3 36.116C59.2946 37.6098 60.0293 39.2611 60.473 41H53.414L58.3 36.116ZM49 29.527C50.7389 29.9707 52.3902 30.7054 53.884 31.7L49 36.586V29.527ZM29.527 49H36.586L31.7 53.883C30.7052 52.3897 29.9705 50.7387 29.527 49ZM31.7 36.116L36.586 41H29.527C29.9708 39.2611 30.7055 37.6098 31.7 36.116ZM39.414 41L32.937 34.522C33.4283 33.9572 33.9583 33.4273 34.523 32.936L41 39.414V41H39.414ZM41 36.586L36.117 31.7C37.6104 30.7052 39.2614 29.9705 41 29.527V36.586ZM25.972 33.38L22.717 32.45C22.5108 32.3905 22.3295 32.2658 22.2002 32.0945C22.071 31.9232 22.0007 31.7146 22 31.5C22 30.5717 21.6313 29.6815 20.9749 29.0251C20.3185 28.3687 19.4283 28 18.5 28C18.1022 28 17.7207 27.842 17.4394 27.5607C17.1581 27.2794 17 26.8978 17 26.5V24C17 23.2044 16.684 22.4413 16.1214 21.8787C15.5587 21.3161 14.7957 21 14 21C13.7348 21 13.4805 20.8946 13.2929 20.7071C13.1054 20.5196 13 20.2652 13 20V18.118C13.0012 17.596 12.8563 17.0841 12.5819 16.64C12.3075 16.196 11.9144 15.8375 11.447 15.605C11.3121 15.5387 11.1986 15.4357 11.1196 15.3078C11.0405 15.1799 10.9991 15.0323 11 14.882V11.77C10.9971 10.8562 11.2695 9.96274 11.7818 9.20606C12.2941 8.44938 13.0225 7.86461 13.872 7.528C14.5015 7.2786 15.0412 6.84534 15.4208 6.2847C15.8004 5.72406 16.0022 5.06205 16 4.385C16.0006 4.01784 16.1467 3.66586 16.4063 3.40624C16.6659 3.14662 17.0179 3.00053 17.385 3H24.146C24.3385 2.99991 24.5253 3.06482 24.6762 3.18421C24.8272 3.30361 24.9334 3.47047 24.9776 3.65777C25.0218 3.84507 25.0015 4.04181 24.9199 4.2161C24.8383 4.39039 24.7002 4.53201 24.528 4.618L22.577 5.593C22.0018 5.88046 21.5405 6.35378 21.2679 6.93623C20.9953 7.51868 20.9274 8.17613 21.0752 8.802C21.223 9.42787 21.5779 9.98547 22.0822 10.3844C22.5866 10.7834 23.2109 11.0003 23.854 11H28.377C28.7268 11.0024 29.0726 11.0743 29.3944 11.2115C29.7162 11.3486 30.0075 11.5483 30.2515 11.7989C30.4955 12.0495 30.6873 12.346 30.8158 12.6714C30.9443 12.9967 31.0069 13.3443 31 13.694C31.0027 14.1997 30.8636 14.6959 30.5984 15.1265C30.3333 15.5571 29.9528 15.9047 29.5 16.13L24.572 18.593C23.9964 18.8806 23.5348 19.3544 23.2623 19.9374C22.9898 20.5203 22.9223 21.1783 23.0707 21.8044C23.2192 22.4306 23.5749 22.9882 24.0802 23.3868C24.5854 23.7853 25.2105 24.0014 25.854 24C27.3549 23.9958 28.8416 24.2894 30.2282 24.8638C31.6148 25.4381 32.8737 26.2818 33.932 27.346L36.013 29.428C32.9915 31.1795 30.5411 33.7674 28.957 36.88C28.8552 36.069 28.5183 35.3055 27.9879 34.6836C27.4575 34.0617 26.7568 33.6086 25.972 33.38ZM29.723 58.613C29.6393 58.7259 29.5303 58.8177 29.4048 58.8809C29.2792 58.9441 29.1406 58.977 29 58.977C28.8595 58.977 28.7209 58.9441 28.5953 58.8809C28.4697 58.8177 28.3607 58.7259 28.277 58.613L27.219 57.025C26.9461 56.6119 26.5472 56.298 26.0816 56.1297C25.616 55.9615 25.1086 55.948 24.6347 56.0912C24.1608 56.2344 23.7457 56.5267 23.4512 56.9246C23.1567 57.3226 22.9985 57.8049 23 58.3C23 59.0161 22.7156 59.7028 22.2092 60.2092C21.7029 60.7155 21.0161 61 20.3 61H13.889C13.6922 60.9998 13.501 60.9342 13.3454 60.8137C13.1898 60.6931 13.0786 60.5242 13.0293 60.3337C12.98 60.1431 12.9954 59.9415 13.073 59.7606C13.1505 59.5797 13.286 59.4296 13.458 59.334L20.514 55.414C21.0733 55.1031 21.5135 54.6152 21.7656 54.0271C22.0177 53.4389 22.0674 52.7837 21.9068 52.1643C21.7463 51.5448 21.3847 50.9962 20.8787 50.6045C20.3727 50.2128 19.7509 50.0002 19.111 50H17.927C17.6813 49.9997 17.4456 49.902 17.2718 49.7282C17.098 49.5544 17.0003 49.3188 17 49.073C16.9997 48.7039 17.1229 48.3453 17.35 48.0542C17.577 47.7632 17.8949 47.5565 18.253 47.467C19.0381 47.2721 19.7352 46.8198 20.2332 46.1823C20.7311 45.5448 21.0011 44.7589 21 43.95C21.002 43.2001 20.8552 42.4573 20.5682 41.7646C20.2812 41.0718 19.8597 40.4428 19.328 39.914C19.1711 39.7572 19.0643 39.5574 19.0209 39.3399C18.9776 39.1223 18.9998 38.8968 19.0847 38.6919C19.1696 38.487 19.3134 38.3119 19.4979 38.1887C19.6824 38.0655 19.8992 37.9999 20.121 38C20.5345 37.9996 20.9417 38.1016 21.3062 38.2968C21.6707 38.4921 21.9812 38.7746 22.21 39.119L22.395 39.395C22.6729 39.816 23.0367 40.1734 23.4626 40.4437C23.8884 40.714 24.3667 40.8911 24.8659 40.9634C25.3651 41.0356 25.8739 41.0014 26.359 40.8629C26.844 40.7245 27.2942 40.4849 27.68 40.16C26.8573 43.0484 26.7787 46.0981 27.4517 49.025C28.1247 51.9519 29.5273 54.661 31.529 56.9C30.8113 57.335 30.1953 57.9192 29.723 58.613ZM32.936 55.477L39.414 49H41V50.586L34.523 57.064C33.9577 56.5726 33.4274 56.0424 32.936 55.477ZM41 60.477C39.2611 60.0323 37.6101 59.2962 36.117 58.3L41 53.414V60.477ZM43 60.865V48C43 47.7348 42.8947 47.4804 42.7071 47.2929C42.5196 47.1054 42.2653 47 42 47H29.139C28.9537 45.6731 28.9537 44.3269 29.139 43H42C42.2653 43 42.5196 42.8946 42.7071 42.7071C42.8947 42.5196 43 42.2652 43 42V29.139C44.3269 28.9537 45.6731 28.9537 47 29.139V42C47 42.2652 47.1054 42.5196 47.2929 42.7071C47.4805 42.8946 47.7348 43 48 43H60.861C61.0464 44.3269 61.0464 45.6731 60.861 47H48C47.7348 47 47.4805 47.1054 47.2929 47.2929C47.1054 47.4804 47 47.7348 47 48V60.861C45.6731 61.0463 44.3269 61.0463 43 60.861V60.865ZM60.473 49C60.0295 50.7387 59.2948 52.3897 58.3 53.883L53.414 49H60.473ZM49 53.414L53.884 58.3C52.3902 59.2946 50.7389 60.0293 49 60.473V53.414ZM55.478 57.063L49 50.586V49H50.586L57.064 55.477C56.5728 56.0418 56.0428 56.5717 55.478 57.063Z" fill="#1B1717"/>
</svg>
