<svg width="64" height="64" viewBox="0 0 64 64" fill="none" xmlns="http://www.w3.org/2000/svg">
<path d="M41 41H43V43H41V41ZM37 41H39V43H37V41ZM33 41H35V43H33V41ZM39 38H41V40H39V38ZM35 38H37V40H35V38ZM31 38H33V40H31V38ZM41 35H43V37H41V35ZM37 35H39V37H37V35ZM33 35H35V37H33V35ZM39 32H41V34H39V32Z" fill="#1B1717"/>
<path d="M55.41 20L60.671 14.739C61.4111 14.0029 61.998 13.1274 62.3978 12.1631C62.7975 11.1988 63.0022 10.1649 63 9.12101C63 8.5037 62.817 7.90024 62.4741 7.38695C62.1312 6.87366 61.6437 6.47359 61.0734 6.23735C60.5031 6.00111 59.8755 5.9393 59.2701 6.05975C58.6646 6.18019 58.1085 6.47748 57.672 6.91401L56.712 7.87401C56.3559 8.23212 55.9324 8.51603 55.4658 8.70931C54.9993 8.9026 54.499 9.0014 53.994 9.00001C52.908 8.99627 51.8426 9.29689 50.9188 9.86779C49.9949 10.4387 49.2495 11.257 48.767 12.23L47.619 14.53C47.5332 14.7029 47.3914 14.8416 47.2167 14.9236C47.042 15.0055 46.8447 15.0259 46.6569 14.9814C46.4691 14.9368 46.302 14.83 46.1827 14.6783C46.0634 14.5266 45.999 14.339 46 14.146C46.0031 13.0167 45.7821 11.898 45.3499 10.8547C44.9177 9.81144 44.2828 8.86424 43.482 8.06801L42.262 6.84801C41.6774 6.26025 40.982 5.79429 40.2161 5.47708C39.4502 5.15987 38.629 4.99772 37.8 5.00001C36.8224 4.99998 35.8668 4.7101 35.054 4.16701C33.8867 3.39322 32.5144 2.98676 31.114 3.00001C27.4173 2.99641 23.731 2.60967 20.114 1.84601L18.22 1.44601C15.4782 0.869198 12.648 0.85355 9.9 1.40001C7.39349 1.90684 5.13886 3.26358 3.51722 5.24088C1.89558 7.21819 1.00641 9.69478 1 12.252V22.52C1.00149 24.0604 1.36934 25.5783 2.07319 26.9484C2.77705 28.3186 3.79671 29.5017 5.048 30.4C7.40749 32.0967 10.2418 33.0065 13.148 33C14.8436 33.0007 16.5195 33.3637 18.0634 34.0648C19.6073 34.7658 20.9836 35.7888 22.1 37.065L24.273 39.548C24.671 40.0031 25.1615 40.3681 25.7118 40.6185C26.262 40.8688 26.8594 40.9989 27.464 41C26.7005 44.3456 26.9095 47.8397 28.0665 51.0704C29.2234 54.3011 31.2801 57.1336 33.9939 59.2339C36.7077 61.3342 39.9655 62.6146 43.3831 62.9243C46.8008 63.234 50.2357 62.5599 53.2828 60.9817C56.3299 59.4034 58.8622 56.9867 60.581 54.0166C62.2999 51.0465 63.1335 47.6468 62.9838 44.2184C62.834 40.7901 61.7071 37.4761 59.7358 34.6672C57.7645 31.8582 55.0311 29.6716 51.858 28.365C52.5362 27.7301 53.0764 26.9623 53.445 26.1095C53.8135 25.2566 54.0024 24.337 54 23.408C53.9976 22.7749 54.121 22.1476 54.3631 21.5625C54.6051 20.9775 54.961 20.4464 55.41 20ZM35 32.53V34H37V32H35.708C36.2092 31.6367 36.7311 31.3028 37.271 31H39V30.178C39.6516 29.9172 40.3197 29.6997 41 29.527V31H43V29.139C43.33 29.097 43.664 29.072 44 29.051V32H43V34H44V38H43V40H44V44H29.051C29.072 43.664 29.097 43.33 29.139 43H31V41H29.527C30.3914 37.6609 32.311 34.6902 35 32.53ZM54.292 32H46V29.051C48.9865 29.2337 51.8608 30.2559 54.292 32ZM60.192 40H46V38H59.365C59.6849 38.6471 59.9602 39.3154 60.189 40H60.192ZM29.811 50H60.189C59.9602 50.6847 59.6849 51.3529 59.365 52H30.635C30.3151 51.3529 30.0398 50.6847 29.811 50ZM29.292 48C29.1694 47.3391 29.0889 46.6711 29.051 46H60.951C60.9131 46.6711 60.8326 47.3391 60.71 48H29.292ZM46 44V42H60.708C60.8306 42.6609 60.9111 43.3289 60.949 44H46ZM39.485 60C38.1421 59.5056 36.8717 58.8329 35.708 58H54.292C53.1283 58.8329 51.8579 59.5056 50.515 60H39.485ZM56.585 56H33.411C32.8152 55.3781 32.2705 54.7093 31.782 54H58.218C57.7295 54.7093 57.1848 55.3781 56.589 56H56.585ZM58.214 36H46V34H56.589C57.1848 34.6219 57.7295 35.2907 58.218 36H58.214ZM52 23.408C52.0015 24.264 51.773 25.1048 51.3383 25.8422C50.9036 26.5797 50.2787 27.1868 49.529 27.6C45.188 26.446 40.5717 26.9683 36.5983 29.063C32.625 31.1577 29.5856 34.6714 28.085 38.905C27.8873 38.9644 27.6824 38.9964 27.476 39C27.1551 39.0001 26.8379 38.9315 26.5458 38.7989C26.2536 38.6662 25.9932 38.4726 25.782 38.231L23.609 35.748C22.3041 34.2564 20.6953 33.061 18.8906 32.2421C17.0858 31.4232 15.1268 30.9997 13.145 31C10.6577 31.0047 8.23215 30.2255 6.213 28.773C5.21982 28.0603 4.41045 27.1216 3.85177 26.0343C3.29309 24.947 3.00113 23.7424 3 22.52V12.252C3.00452 10.1574 3.7323 8.12856 5.06028 6.50867C6.38825 4.88879 8.23492 3.77724 10.288 3.36201C12.7689 2.8678 15.3242 2.88073 17.8 3.40001L19.694 3.80001C23.4772 4.59858 27.3334 5.00076 31.2 5.00001C32.1779 4.99917 33.1339 5.28875 33.947 5.83201C35.0877 6.59357 36.4285 7.00001 37.8 7.00001C38.3663 6.99832 38.9272 7.10899 39.4504 7.32562C39.9736 7.54224 40.4487 7.86052 40.848 8.26201L42.068 9.48201C42.6825 10.093 43.1696 10.8199 43.5012 11.6205C43.8329 12.421 44.0024 13.2795 44 14.146C43.9999 14.789 44.217 15.4132 44.616 15.9174C45.0151 16.4216 45.5727 16.7763 46.1985 16.924C46.8243 17.0717 47.4816 17.0037 48.064 16.7311C48.6463 16.4585 49.1196 15.9972 49.407 15.422L50.556 13.122C50.8735 12.4824 51.3639 11.9445 51.9716 11.5695C52.5793 11.1944 53.2799 10.9971 53.994 11C54.7618 11.0023 55.5224 10.8522 56.2317 10.5583C56.941 10.2644 57.5849 9.83265 58.126 9.28801L59.086 8.32801C59.2428 8.1711 59.4426 8.06422 59.6601 8.02091C59.8777 7.97761 60.1032 7.99981 60.3081 8.08471C60.513 8.16961 60.6881 8.31339 60.8113 8.49786C60.9345 8.68233 61.0001 8.8992 61 9.12101C61.0021 9.90281 60.8491 10.6773 60.5499 11.3996C60.2507 12.1219 59.8113 12.7777 59.257 13.329L54 18.59C53.3643 19.2207 52.8602 19.9714 52.5169 20.7985C52.1736 21.6255 51.9979 22.5125 52 23.408Z" fill="#1B1717"/>
</svg>
