<svg width="64" height="64" viewBox="0 0 64 64" fill="none" xmlns="http://www.w3.org/2000/svg">
<path d="M2 22.52V12.252C2.00013 9.92506 2.80643 7.67003 4.28174 5.87056C5.75706 4.07109 7.81024 2.83833 10.092 2.382C11.3609 2.12798 12.6519 2.00003 13.946 2C15.3114 1.99981 16.6732 2.14225 18.009 2.425L19.902 2.825C23.5886 3.6036 27.3461 3.99737 31.114 4H31.2C32.3746 4.00048 33.5227 4.34841 34.5 5C35.4773 5.65154 36.6254 5.99946 37.8 6C39.2084 6.00057 40.559 6.56022 41.555 7.556L42.776 8.777C44.1993 10.2014 44.9992 12.1324 45 14.146C45 14.6377 45.1953 15.1093 45.543 15.457C45.8907 15.8047 46.3623 16 46.854 16C47.1983 15.9999 47.5357 15.904 47.8286 15.723C48.1214 15.5419 48.3581 15.2829 48.512 14.975L49.661 12.675C50.0638 11.8709 50.6825 11.1948 51.4477 10.7223C52.213 10.2499 53.0947 9.99979 53.994 10C55.2787 9.99988 56.5107 9.48945 57.419 8.581L58.379 7.621C58.576 7.42402 58.8098 7.26778 59.0672 7.16123C59.3246 7.05467 59.6004 6.99989 59.879 7C60.4414 7.00027 60.9808 7.22381 61.3785 7.62152C61.7762 8.01923 61.9997 8.55856 62 9.121C62.0001 10.0338 61.8203 10.9377 61.471 11.7811C61.1216 12.6244 60.6096 13.3906 59.964 14.036L54.7 19.3C54.1606 19.8399 53.7329 20.4807 53.4412 21.1859C53.1495 21.8911 52.9996 22.6469 53 23.41C53.0003 24.4896 52.6998 25.548 52.1323 26.4665C51.5648 27.385 50.7527 28.1272 49.787 28.61L48.568 29.219C48.0974 29.4542 47.7015 29.8157 47.4246 30.263C47.1477 30.7104 47.0007 31.2259 47 31.752V31.788C46.9984 32.1707 47.0727 32.55 47.2184 32.9039C47.3641 33.2578 47.5784 33.5793 47.849 33.85L50.379 36.379C50.576 36.576 50.7322 36.8098 50.8388 37.0672C50.9453 37.3246 51.0001 37.6004 51 37.879V37.935C51.0004 38.206 50.9473 38.4745 50.8439 38.725C50.7405 38.9755 50.5886 39.2032 50.3971 39.395C50.2056 39.5868 49.9782 39.7389 49.7278 39.8428C49.4774 39.9466 49.209 40 48.938 40H48.888C48.2908 40.0012 47.6992 39.8845 47.1471 39.6567C46.5951 39.4288 46.0935 39.0942 45.671 38.672L43.315 36.315C42.5811 35.5807 41.7096 34.9984 40.7504 34.6011C39.7912 34.2039 38.7632 33.9996 37.725 34H37.716C36.5531 33.9999 35.4044 34.2554 34.3513 34.7486C33.2982 35.2419 32.3664 35.9606 31.622 36.854L29.976 38.829C29.6707 39.1956 29.2884 39.4905 28.8564 39.6929C28.4243 39.8952 27.9531 40.0001 27.476 40C27.0126 40.0002 26.5544 39.9013 26.1324 39.7098C25.7103 39.5184 25.3341 39.2388 25.029 38.89L22.856 36.406C21.6448 35.022 20.1517 33.9129 18.4769 33.153C16.8021 32.3931 14.9842 32 13.145 32C10.4498 32.0004 7.82209 31.1565 5.631 29.587C4.50774 28.7823 3.59245 27.7215 2.96099 26.4925C2.32954 25.2635 2.0001 23.9017 2 22.52Z" fill="#006837"/>
<path d="M59.879 6.99998C59.6004 6.99976 59.3245 7.0545 59.0671 7.16106C58.8097 7.26762 58.5759 7.42391 58.379 7.62098L57.419 8.58098C56.5107 9.48944 55.2787 9.99986 53.994 9.99998C53.0949 10.0027 52.2141 10.2543 51.4493 10.727C50.6845 11.1997 50.0655 11.875 49.661 12.678L49.584 12.831L48.512 14.975C48.3251 15.3484 48.0177 15.6478 47.6395 15.8247C47.2613 16.0016 46.8344 16.0456 46.4281 15.9497C46.0217 15.8538 45.6596 15.6235 45.4004 15.2962C45.1412 14.9688 45.0002 14.5635 45 14.146C44.9995 12.132 44.1996 10.2006 42.776 8.77598L41.555 7.55498C40.5588 6.55957 39.2083 6.00028 37.8 5.99998C36.6254 5.99945 35.4773 5.65152 34.5 4.99998C33.5227 4.34839 32.3746 4.00046 31.2 3.99998H31.116C27.3467 3.99763 23.5879 3.60385 19.9 2.82498L18.007 2.42498C15.3982 1.87415 12.7045 1.85986 10.09 2.38298C8.08886 2.78144 6.25675 3.78052 4.838 5.24698C4.28622 6.51015 4.00094 7.87356 4 9.25198V19.52C4.0001 20.9017 4.32954 22.2635 4.96099 23.4925C5.59245 24.7215 6.50774 25.7823 7.631 26.587C9.82209 28.1565 12.4498 29.0004 15.145 29C16.9842 29 18.8021 29.3931 20.4769 30.153C22.1517 30.9129 23.6448 32.022 24.856 33.406L27.029 35.89C27.3388 36.2439 27.7216 36.5264 28.1511 36.718C28.5806 36.9096 29.0465 37.0058 29.5168 36.9999C29.9871 36.994 30.4505 36.8862 30.875 36.6838C31.2996 36.4815 31.6752 36.1895 31.976 35.828L33.622 33.854C34.3664 32.9606 35.2982 32.2418 36.3513 31.7486C37.4044 31.2554 38.5531 30.9998 39.716 31H39.725C40.7632 30.9996 41.7912 31.2039 42.7504 31.6011C43.7096 31.9983 44.5811 32.5807 45.315 33.315L47.671 35.672C48.5037 36.5005 49.6255 36.9734 50.8 36.991C50.6973 36.764 50.5555 36.5568 50.381 36.379L47.851 33.85C47.5801 33.5795 47.3654 33.258 47.2193 32.9041C47.0732 32.5502 46.9987 32.1708 47 31.788V31.752C47 31.2252 47.1466 30.7088 47.4236 30.2607C47.7005 29.8126 48.0968 29.4505 48.568 29.215L49.02 28.989L49.787 28.606C50.7503 28.1208 51.5605 27.3783 52.1276 26.4608C52.6948 25.5433 52.9967 24.4866 53 23.408C52.9996 22.6448 53.1495 21.8891 53.4412 21.1839C53.7329 20.4787 54.1606 19.8379 54.7 19.298L55.239 18.759L59.962 14.036C61.2577 12.727 61.9893 10.9627 62 9.12098C61.9997 8.55854 61.7762 8.01921 61.3785 7.6215C60.9808 7.2238 60.4414 7.00025 59.879 6.99998Z" fill="#009245"/>
<path d="M45 62C54.3888 62 62 54.3888 62 45C62 35.6112 54.3888 28 45 28C35.6112 28 28 35.6112 28 45C28 54.3888 35.6112 62 45 62Z" fill="#E6E6E6"/>
<path d="M45 28C41.4696 27.9984 38.0273 29.102 35.156 31.156C32.8228 34.4273 31.7251 38.4199 32.058 42.4241C32.3908 46.4284 34.1326 50.185 36.9738 53.0262C39.815 55.8674 43.5716 57.6092 47.5758 57.942C51.5801 58.2749 55.5727 57.1772 58.844 54.844C60.656 52.3032 61.7329 49.3122 61.9565 46.1994C62.18 43.0866 61.5415 39.9724 60.111 37.1987C58.6806 34.4251 56.5136 32.0992 53.8478 30.4764C51.1821 28.8537 48.1208 27.9969 45 28Z" fill="white"/>
<path d="M45 28C43.0567 28.0036 41.1285 28.3419 39.3 29H50.7C48.8715 28.3419 46.9433 28.0036 45 28Z" fill="#DD1F2D"/>
<path d="M28.493 49C28.8236 50.3919 29.33 51.736 30 53H60C60.6707 51.7361 61.1777 50.392 61.509 49H28.493Z" fill="#C1272D"/>
<path d="M61.507 41H28.493C28.1703 42.309 28.0048 43.6518 28 45H62C61.9952 43.6518 61.8297 42.309 61.507 41ZM57.04 33H32.96C31.7831 34.1814 30.7858 35.5291 30 37H60C59.2142 35.5291 58.2169 34.1814 57.04 33Z" fill="#DD1F2D"/>
<path d="M39.3 61H50.7C53.085 60.1552 55.2514 58.7886 57.041 57H32.96C34.7494 58.7885 36.9154 60.155 39.3 61Z" fill="#C1272D"/>
<path d="M45 28C40.4913 28 36.1673 29.7911 32.9792 32.9792C29.7911 36.1673 28 40.4913 28 45H45V28Z" fill="#063990"/>
<path d="M41 41H43V43H41V41ZM37 41H39V43H37V41ZM33 41H35V43H33V41ZM29 41H31V43H29V41ZM43 38H45V40H43V38ZM39 38H41V40H39V38ZM35 38H37V40H35V38ZM31 38H33V40H31V38ZM41 35H43V37H41V35ZM37 35H39V37H37V35ZM33 35H35V37H33V35ZM43 32H45V34H43V32ZM39 32H41V34H39V32ZM35 32H37V34H35V32ZM41 29H43V31H41V29ZM31 37V35.366C30.6362 35.8914 30.3023 36.4369 30 37H31ZM37 30V31H39V29.11C38.3148 29.3632 37.6468 29.6605 37 30Z" fill="white"/>
<path d="M49 58C50.9435 57.9985 52.872 57.6601 54.7 57H43.3C45.1285 57.6581 47.0567 57.9964 49 58ZM36.96 53H59.977C60.6603 51.7379 61.1795 50.3937 61.522 49H34C34.7858 50.4709 35.7831 51.8186 36.96 53Z" fill="#DD1F2D"/>
<path d="M41 41H43V43H41V41ZM37 41H39V43H37V41ZM33 41H35V43H33V41ZM39 38H41V40H39V38ZM35 38H37V40H35V38ZM31 38H33V40H31V38ZM41 35H43V37H41V35ZM37 35H39V37H37V35ZM33 35H35V37H33V35ZM39 32H41V34H39V32Z" fill="#1B1717"/>
<path d="M55.41 20L60.671 14.739C61.4111 14.0029 61.998 13.1274 62.3978 12.1631C62.7975 11.1988 63.0022 10.1649 63 9.12101C63 8.5037 62.817 7.90024 62.4741 7.38695C62.1312 6.87366 61.6437 6.47359 61.0734 6.23735C60.5031 6.00111 59.8755 5.9393 59.2701 6.05975C58.6646 6.18019 58.1085 6.47748 57.672 6.91401L56.712 7.87401C56.3559 8.23212 55.9324 8.51603 55.4658 8.70931C54.9993 8.9026 54.499 9.0014 53.994 9.00001C52.908 8.99627 51.8426 9.29689 50.9188 9.86779C49.9949 10.4387 49.2495 11.257 48.767 12.23L47.619 14.53C47.5332 14.7029 47.3914 14.8416 47.2167 14.9236C47.042 15.0055 46.8447 15.0259 46.6569 14.9814C46.4691 14.9368 46.302 14.83 46.1827 14.6783C46.0634 14.5266 45.999 14.339 46 14.146C46.0031 13.0167 45.7821 11.898 45.3499 10.8547C44.9177 9.81144 44.2828 8.86424 43.482 8.06801L42.262 6.84801C41.6774 6.26025 40.982 5.79429 40.2161 5.47708C39.4502 5.15987 38.629 4.99772 37.8 5.00001C36.8224 4.99998 35.8668 4.7101 35.054 4.16701C33.8867 3.39322 32.5144 2.98676 31.114 3.00001C27.4173 2.99641 23.731 2.60967 20.114 1.84601L18.22 1.44601C15.4782 0.869198 12.648 0.85355 9.9 1.40001C7.39349 1.90684 5.13886 3.26358 3.51722 5.24088C1.89558 7.21819 1.00641 9.69478 1 12.252V22.52C1.00149 24.0604 1.36934 25.5783 2.07319 26.9484C2.77705 28.3186 3.79671 29.5017 5.048 30.4C7.40749 32.0967 10.2418 33.0065 13.148 33C14.8436 33.0007 16.5195 33.3637 18.0634 34.0648C19.6073 34.7658 20.9836 35.7888 22.1 37.065L24.273 39.548C24.671 40.0031 25.1615 40.3681 25.7118 40.6185C26.262 40.8688 26.8594 40.9989 27.464 41C26.7005 44.3456 26.9095 47.8397 28.0665 51.0704C29.2234 54.3011 31.2801 57.1336 33.9939 59.2339C36.7077 61.3342 39.9655 62.6146 43.3831 62.9243C46.8008 63.234 50.2357 62.5599 53.2828 60.9817C56.3299 59.4034 58.8622 56.9867 60.581 54.0166C62.2999 51.0465 63.1335 47.6468 62.9838 44.2184C62.834 40.7901 61.7071 37.4761 59.7358 34.6672C57.7645 31.8582 55.0311 29.6716 51.858 28.365C52.5362 27.7301 53.0764 26.9623 53.445 26.1095C53.8135 25.2566 54.0024 24.337 54 23.408C53.9976 22.7749 54.121 22.1476 54.3631 21.5625C54.6051 20.9775 54.961 20.4464 55.41 20ZM35 32.53V34H37V32H35.708C36.2092 31.6367 36.7311 31.3028 37.271 31H39V30.178C39.6516 29.9172 40.3197 29.6997 41 29.527V31H43V29.139C43.33 29.097 43.664 29.072 44 29.051V32H43V34H44V38H43V40H44V44H29.051C29.072 43.664 29.097 43.33 29.139 43H31V41H29.527C30.3914 37.6609 32.311 34.6902 35 32.53ZM54.292 32H46V29.051C48.9865 29.2337 51.8608 30.2559 54.292 32ZM60.192 40H46V38H59.365C59.6849 38.6471 59.9602 39.3154 60.189 40H60.192ZM29.811 50H60.189C59.9602 50.6847 59.6849 51.3529 59.365 52H30.635C30.3151 51.3529 30.0398 50.6847 29.811 50ZM29.292 48C29.1694 47.3391 29.0889 46.6711 29.051 46H60.951C60.9131 46.6711 60.8326 47.3391 60.71 48H29.292ZM46 44V42H60.708C60.8306 42.6609 60.9111 43.3289 60.949 44H46ZM39.485 60C38.1421 59.5056 36.8717 58.8329 35.708 58H54.292C53.1283 58.8329 51.8579 59.5056 50.515 60H39.485ZM56.585 56H33.411C32.8152 55.3781 32.2705 54.7093 31.782 54H58.218C57.7295 54.7093 57.1848 55.3781 56.589 56H56.585ZM58.214 36H46V34H56.589C57.1848 34.6219 57.7295 35.2907 58.218 36H58.214ZM52 23.408C52.0015 24.264 51.773 25.1048 51.3383 25.8422C50.9036 26.5797 50.2787 27.1868 49.529 27.6C45.188 26.446 40.5717 26.9683 36.5983 29.063C32.625 31.1577 29.5856 34.6714 28.085 38.905C27.8873 38.9644 27.6824 38.9964 27.476 39C27.1551 39.0001 26.8379 38.9315 26.5458 38.7989C26.2536 38.6662 25.9932 38.4726 25.782 38.231L23.609 35.748C22.3041 34.2564 20.6953 33.061 18.8906 32.2421C17.0858 31.4232 15.1268 30.9997 13.145 31C10.6577 31.0047 8.23215 30.2255 6.213 28.773C5.21982 28.0603 4.41045 27.1216 3.85177 26.0343C3.29309 24.947 3.00113 23.7424 3 22.52V12.252C3.00452 10.1574 3.7323 8.12856 5.06028 6.50867C6.38825 4.88879 8.23492 3.77724 10.288 3.36201C12.7689 2.8678 15.3242 2.88073 17.8 3.40001L19.694 3.80001C23.4772 4.59858 27.3334 5.00076 31.2 5.00001C32.1779 4.99917 33.1339 5.28875 33.947 5.83201C35.0877 6.59357 36.4285 7.00001 37.8 7.00001C38.3663 6.99832 38.9272 7.10899 39.4504 7.32562C39.9736 7.54224 40.4487 7.86052 40.848 8.26201L42.068 9.48201C42.6825 10.093 43.1696 10.8199 43.5012 11.6205C43.8329 12.421 44.0024 13.2795 44 14.146C43.9999 14.789 44.217 15.4132 44.616 15.9174C45.0151 16.4216 45.5727 16.7763 46.1985 16.924C46.8243 17.0717 47.4816 17.0037 48.064 16.7311C48.6463 16.4585 49.1196 15.9972 49.407 15.422L50.556 13.122C50.8735 12.4824 51.3639 11.9445 51.9716 11.5695C52.5793 11.1944 53.2799 10.9971 53.994 11C54.7618 11.0023 55.5224 10.8522 56.2317 10.5583C56.941 10.2644 57.5849 9.83265 58.126 9.28801L59.086 8.32801C59.2428 8.1711 59.4426 8.06422 59.6601 8.02091C59.8777 7.97761 60.1032 7.99981 60.3081 8.08471C60.513 8.16961 60.6881 8.31339 60.8113 8.49786C60.9345 8.68233 61.0001 8.8992 61 9.12101C61.0021 9.90281 60.8491 10.6773 60.5499 11.3996C60.2507 12.1219 59.8113 12.7777 59.257 13.329L54 18.59C53.3643 19.2207 52.8602 19.9714 52.5169 20.7985C52.1736 21.6255 51.9979 22.5125 52 23.408Z" fill="#1B1717"/>
</svg>
